<svg xmlns="http://www.w3.org/2000/svg" xmlns:xlink="http://www.w3.org/1999/xlink" xmlns:inkscape="http://www.inkscape.org/namespaces/inkscape" version="1.1" width="57" height="26" viewBox="0 0 57 26">
<defs>
<path id="font_1_1" d="M.8799896 .2223053C.8959961 .2223053 .9229889 .2223053 .9229889 .25030519 .9229889 .2783203 .8959961 .2783203 .8799896 .2783203H.20298767C.18699646 .2783203 .1599884 .2783203 .1599884 .25030519 .1599884 .2223053 .18699646 .2223053 .20298767 .2223053H.8799896Z"/>
<path id="font_2_1" d="M.397995 .63591006C.397995 .6660156 .394989 .6660156 .3619995 .6660156 .29100038 .6016083 .17999268 .6016083 .1599884 .6016083H.14299011V.5576172H.1599884C.18299866 .5576172 .24798584 .5606079 .30599977 .58561709V.08596802C.30599977 .054977418 .30599977 .04399109 .19999695 .04399109H.1499939V0C.20498657 .0039978029 .2939911 .0039978029 .35198976 .0039978029 .4099884 .0039978029 .49899293 .0039978029 .55400088 0V.04399109H.5039978C.397995 .04399109 .397995 .054977418 .397995 .08596802V.63591006Z"/>
<path id="font_2_2" d="M.58898928 .19296265H.5469971C.5439911 .17396546 .5339966 .11198425 .5179901 .101989749 .5099945 .09599304 .42599488 .09599304 .41099549 .09599304H.21499634C.2809906 .14497376 .35499574 .20095825 .4149933 .24093628 .5049896 .30291749 .58898928 .36090089 .58898928 .46687318 .58898928 .59495547 .46798707 .6660156 .32499696 .6660156 .18998719 .6660156 .09098816 .58795168 .09098816 .48986817 .09098816 .4378662 .1349945 .42886354 .14898682 .42886354 .17599488 .42886354 .20799256 .4468689 .20799256 .48786927 .20799256 .52386477 .18199158 .543869 .15098572 .546875 .1789856 .59194949 .23699951 .6220093 .3039856 .6220093 .40098573 .6220093 .48199464 .5639038 .48199464 .4658661 .48199464 .3818817 .42399598 .31791688 .34700013 .2529297L.102996829 .04598999C.09298706 .036987306 .09199524 .036987306 .09098816 .02999878V0H.55599978L.58898928 .19296265Z"/>
</defs>
<path transform="matrix(1,0,0,-1,1.0490036,34.901)" stroke-width=".19925" stroke-linecap="butt" stroke-miterlimit="10" stroke-linejoin="miter" fill="none" stroke="#d9d9d9" d=""/>
<path transform="matrix(1,0,0,-1,1.0490036,34.901)" stroke-width=".19925" stroke-linecap="butt" stroke-miterlimit="10" stroke-linejoin="miter" fill="none" stroke="#7f807f" d=""/>
<path transform="matrix(1,0,0,-1,1.0490036,34.901)" stroke-width=".3985" stroke-linecap="butt" stroke-miterlimit="10" stroke-linejoin="miter" fill="none" stroke="#000000" d="M0 20.37064H52.38799"/>
<path transform="matrix(1,0,0,-1,53.436994,14.530361)" d="M1.99252 0-1.19551 1.59401 0 0-1.19551-1.59401"/>
<path transform="matrix(1,0,0,-1,1.0490036,34.901)" stroke-width=".3985" stroke-linecap="butt" stroke-miterlimit="10" stroke-linejoin="miter" fill="none" stroke="#000000" d="M6.79756 33.1023 8.49693 29.44194 10.19633 26.09988 11.89572 23.07611 13.59512 20.37064 15.29451 17.98344 16.9939 15.91457 18.69328 14.16396 20.39268 12.73164 22.09207 11.61761 23.79147 10.8219 25.49084 10.34445 27.19025 10.18532 28.88963 10.34445 30.58904 10.8219 32.28842 11.61761 33.98781 12.73164 35.6872 14.16396 37.3866 15.91457 39.08598 17.98344 40.78539 20.37064 42.48476 23.07611 44.18416 26.09988 45.88354 29.44194 47.58295 33.1023"/>
<path transform="matrix(1,0,0,-1,1.0490036,34.901)" stroke-width=".3985" stroke-linecap="butt" stroke-miterlimit="10" stroke-linejoin="miter" fill="none" stroke="#000000" d="M40.78539 20.37064"/>
<path transform="matrix(1,0,0,-1,1.0490036,34.901)" d="M9.20177 12.03508H17.98848V20.17138H9.20177Z" fill="#ffffff" fill-opacity=".7"/>
<use data-text="&#x2212;" xlink:href="#font_1_1" transform="matrix(4.9813,0,0,-4.9813,10.251007,20.043002)"/>
<use data-text="1" xlink:href="#font_2_1" transform="matrix(4.9813,0,0,-4.9813,15.647003,20.043002)"/>
<path transform="matrix(1,0,0,-1,1.0490036,34.901)" d="M39.0903 12.97609H42.480455V20.17139H39.0903Z" fill="#ffffff" fill-opacity=".7"/>
<use data-text="2" xlink:href="#font_2_2" transform="matrix(4.9813,0,0,-4.9813,40.139005,19.932002)"/>
<path transform="matrix(1,0,0,-1,1.0490036,34.901)" stroke-width="1.59404" stroke-linecap="butt" stroke-miterlimit="10" stroke-linejoin="miter" fill="none" stroke="#ff0000" stroke-opacity=".3" d="M4.07854 20.37064H4.47505 4.87157 5.26808 5.66461 6.06114 6.45767 6.85419 7.25072 7.64725 8.04375 8.44028 8.8368 9.23332 9.62985 10.02638 10.4229 10.81943 11.21596 11.61246 12.00899 12.40552 12.80205 13.19856 13.5951"/>
<path transform="matrix(1,0,0,-1,1.0490036,34.901)" stroke-width="1.59404" stroke-linecap="butt" stroke-miterlimit="10" stroke-linejoin="miter" fill="none" stroke="#ff0000" stroke-opacity=".3" d="M40.78539 20.37064H41.1819 41.57841 41.97493 42.37146 42.76799 43.16452 43.56104 43.95757 44.3541 44.75061 45.14713 45.54366 45.94017 46.3367 46.73323 47.12975 47.52628 47.9228 48.31932 48.71584 49.11237 49.5089 49.90541 50.30194"/>
<path transform="matrix(1,0,0,-1,1.0490036,34.901)" stroke-width=".3985" stroke-linecap="butt" stroke-miterlimit="10" stroke-linejoin="miter" fill="none" stroke="#000000" d="M14.5914 20.37064C14.5914 20.92088 14.14536 21.36691 13.59512 21.36691 13.04489 21.36691 12.59885 20.92088 12.59885 20.37064 12.59885 19.8204 13.04489 19.37436 13.59512 19.37436 14.14536 19.37436 14.5914 19.8204 14.5914 20.37064ZM13.59512 20.37064"/>
<path transform="matrix(1,0,0,-1,1.0490036,34.901)" stroke-width=".3985" stroke-linecap="butt" stroke-miterlimit="10" stroke-linejoin="miter" fill="none" stroke="#000000" d="M41.78166 20.37064C41.78166 20.92088 41.33562 21.36691 40.78539 21.36691 40.23514 21.36691 39.78911 20.92088 39.78911 20.37064 39.78911 19.8204 40.23514 19.37436 40.78539 19.37436 41.33562 19.37436 41.78166 19.8204 41.78166 20.37064ZM40.78539 20.37064"/>
</svg>
