<svg xmlns="http://www.w3.org/2000/svg" xmlns:xlink="http://www.w3.org/1999/xlink" xmlns:inkscape="http://www.inkscape.org/namespaces/inkscape" version="1.1" width="57" height="38" viewBox="0 0 57 38">
<path transform="matrix(1,0,0,-1.00009,1.0490036,55.275537)" stroke-width=".19925" stroke-linecap="butt" stroke-miterlimit="10" stroke-linejoin="miter" fill="none" stroke="#d9d9d9" d=""/>
<path transform="matrix(1,0,0,-1.00009,1.0490036,55.275537)" stroke-width=".19925" stroke-linecap="butt" stroke-miterlimit="10" stroke-linejoin="miter" fill="none" stroke="#7f807f" d=""/>
<path transform="matrix(1,0,0,-1.00009,1.0490036,55.275537)" stroke-width=".3985" stroke-linecap="butt" stroke-miterlimit="10" stroke-linejoin="miter" fill="none" stroke="#000000" d="M0 20.37064H52.38799"/>
<path transform="matrix(1,0,0,-1.00009,53.436994,34.90306)" d="M1.99252 0-1.19551 1.59401 0 0-1.19551-1.59401"/>
<path transform="matrix(1,0,0,-1.00009,1.0490036,55.275537)" stroke-width=".3985" stroke-linecap="butt" stroke-miterlimit="10" stroke-linejoin="miter" fill="none" stroke="#000000" d="M6.79756 53.47295 8.49693 49.81259 10.19633 46.47054 11.89572 43.44676 13.59512 40.74129 15.29451 38.3541 16.9939 36.28522 18.69328 34.5346 20.39268 33.1023 22.09207 31.98827 23.79147 31.19255 25.49084 30.7151 27.19025 30.55597 28.88963 30.7151 30.58904 31.19255 32.28842 31.98827 33.98781 33.1023 35.6872 34.5346 37.3866 36.28522 39.08598 38.3541 40.78539 40.74129 42.48476 43.44676 44.18416 46.47054 45.88354 49.81259 47.58295 53.47295"/>
<path transform="matrix(1,0,0,-1.00009,1.0490036,55.275537)" stroke-width="1.59404" stroke-linecap="butt" stroke-miterlimit="10" stroke-linejoin="miter" fill="none" stroke="#ff0000" stroke-opacity=".3" d="M4.07854 20.37064H6.00449 7.93045 9.85643 11.7824 13.70836 15.63432 17.5603 19.48625 21.41222 23.3382 25.26416 27.19012 29.1161 31.04207 32.96802 34.894 36.81996 38.74593 40.67189 42.59787 44.52383 46.44978 48.37576 50.30173"/>
</svg>
