<svg xmlns="http://www.w3.org/2000/svg" xmlns:xlink="http://www.w3.org/1999/xlink" xmlns:inkscape="http://www.inkscape.org/namespaces/inkscape" version="1.1" width="147" height="54" viewBox="0 0 147 54">
<defs>
<path id="font_1_1" d="M.6589966 .23046875C.6759949 .23046875 .69400027 .23046875 .69400027 .25045777 .69400027 .27046205 .6759949 .27046205 .6589966 .27046205H.117996219C.100997928 .27046205 .08299255 .27046205 .08299255 .25045777 .08299255 .23046875 .100997928 .23046875 .117996219 .23046875H.6589966Z"/>
<path id="font_2_2" d="M.1269989 .07699585 .23298645 .18003845C.3889923 .31811524 .44898988 .3721466 .44898988 .47216798 .44898988 .5860901 .35899354 .6660156 .23699951 .6660156 .12399292 .6660156 .049987794 .57411196 .049987794 .48516847 .049987794 .4291687 .099990848 .4291687 .102996829 .4291687 .11999512 .4291687 .15499878 .44117738 .15499878 .48217774 .15499878 .5081787 .13699341 .5341797 .101989749 .5341797 .09399414 .5341797 .09199524 .5341797 .08898926 .5331726 .11199951 .59806826 .1659851 .63500979 .22399903 .63500979 .31498719 .63500979 .35798646 .5541382 .35798646 .47216798 .35798646 .39215089 .30799867 .31311036 .25299073 .25108338L.06098938 .036987306C.049987794 .025985718 .049987794 .023986817 .049987794 0H.42099L.44898988 .17404175H.42399598C.4189911 .14402771 .4119873 .1000061 .4019928 .084991458 .394989 .07699585 .32899476 .07699585 .30699159 .07699585H.1269989Z"/>
<path id="font_2_1" d="M.45999146 .31976319C.45999146 .39982606 .45498658 .47988893 .41999818 .5539398 .37399293 .65000918 .2919922 .6660156 .25 .6660156 .18998719 .6660156 .116989139 .64001467 .07598877 .54693606 .04399109 .47789 .038986207 .39982606 .038986207 .31976319 .038986207 .24472046 .042999269 .15464783 .083999637 .07859802 .1269989-.0024719239 .19999695-.022460938 .24899292-.022460938 .30299378-.022460938 .3789978-.0014648438 .4229889 .09359741 .45498658 .16265869 .45999146 .2407074 .45999146 .31976319M.24899292-.00047302247C.20999146-.00047302247 .15098572 .024551392 .1329956 .12062073 .12199402 .18066406 .12199402 .2727356 .12199402 .3317871 .12199402 .39582826 .12199402 .46188355 .12998963 .5159149 .14898682 .63500979 .22399903 .64401248 .24899292 .64401248 .28199769 .64401248 .34799195 .6259918 .36698915 .52693179 .3769989 .47088624 .3769989 .39482118 .3769989 .3317871 .3769989 .25672914 .3769989 .18867493 .3659973 .12461853 .35099793 .029556275 .2939911-.00047302247 .24899292-.00047302247Z"/>
<path id="font_2_3" d="M.2939911 .16503906V.07800293C.2939911 .041992189 .2919922 .0309906 .21798706 .0309906H.19699097V0C.23799134 .0029907227 .2899933 .0029907227 .33198548 .0029907227 .37399293 .0029907227 .4269867 .0029907227 .46798707 0V.0309906H.44699098C.37298585 .0309906 .37098695 .041992189 .37098695 .07800293V.16503906H.47099305V.19602967H.37098695V.65075686C.37098695 .67074587 .37098695 .6767578 .35499574 .6767578 .34599305 .6767578 .34298707 .6767578 .33499146 .66474917L.027999878 .19602967V.16503906H.2939911M.2999878 .19602967H.055999757L.2999878 .5688019V.19602967Z"/>
<path id="font_3_1" d="M.33399964 .30233766C.33999635 .32835389 .36299134 .42037965 .43299867 .42037965 .43798829 .42037965 .46199037 .42037965 .48298646 .40734864 .45498658 .402359 .43499757 .37734986 .43499757 .35334779 .43499757 .33735658 .44599916 .31835938 .47299195 .31835938 .49499513 .31835938 .5269928 .3363495 .5269928 .37635804 .5269928 .42837525 .46798707 .4423828 .43399049 .4423828 .37599183 .4423828 .34098817 .38935853 .32899476 .36634828 .3039856 .43237306 .25 .4423828 .22099304 .4423828 .116989139 .4423828 .05999756 .3133545 .05999756 .28834535 .05999756 .27833558 .069992069 .27833558 .07199097 .27833558 .07998657 .27833558 .08299255 .28033448 .084991458 .28933717 .11898804 .39535523 .18499756 .42037965 .21899414 .42037965 .23799134 .42037965 .272995 .4113617 .272995 .35334779 .272995 .32235719 .2559967 .25532533 .21899414 .11528015 .20298767 .053268434 .16799927 .011245728 .12399292 .011245728 .117996219 .011245728 .09498596 .011245728 .07398987 .024276734 .09899902 .029266358 .12098694 .05027771 .12098694 .07827759 .12098694 .105270389 .09899902 .11328125 .083999637 .11328125 .053985597 .11328125 .0289917 .08728027 .0289917 .055267335 .0289917 .009246826 .07899475-.0107421879 .12298584-.0107421879 .18899536-.0107421879 .22499085 .059280397 .22799683 .0652771 .23999024 .028274537 .27598573-.0107421879 .33599855-.0107421879 .43899537-.0107421879 .49598695 .118270877 .49598695 .14328003 .49598695 .1532898 .4869995 .1532898 .48399354 .1532898 .47499085 .1532898 .47299195 .14929199 .47099305 .14228821 .43798829 .03527832 .36999513 .011245728 .33799745 .011245728 .29899598 .011245728 .2829895 .043273927 .2829895 .07727051 .2829895 .09927368 .2889862 .121276859 .2999878 .16529846L.33399964 .30233766Z"/>
</defs>
<path transform="matrix(1.00005,0,0,-1,29.565728,15.525)" stroke-width=".3985" stroke-linecap="butt" stroke-miterlimit="10" stroke-linejoin="miter" fill="none" stroke="#000000" d="M0-2.83484V2.83441"/>
<use data-text="&#x2212;" xlink:href="#font_1_1" transform="matrix(9.963098,0,0,-9.9626,23.200409,8.341)"/>
<use data-text="2" xlink:href="#font_2_2" transform="matrix(9.963098,0,0,-9.9626,30.9488,8.341)"/>
<path transform="matrix(1.00005,0,0,-1,29.565728,15.525)" stroke-width=".3985" stroke-linecap="butt" stroke-miterlimit="10" stroke-linejoin="miter" fill="none" stroke="#000000" d="M28.3468-2.83484V2.83441"/>
<use data-text="0" xlink:href="#font_2_1" transform="matrix(9.963098,0,0,-9.9626,55.42302,9.171)"/>
<path transform="matrix(1.00005,0,0,-1,29.565728,15.525)" stroke-width=".3985" stroke-linecap="butt" stroke-miterlimit="10" stroke-linejoin="miter" fill="none" stroke="#000000" d="M56.69362-2.83484V2.83441"/>
<use data-text="2" xlink:href="#font_2_2" transform="matrix(9.963098,0,0,-9.9626,83.77144,9.171)"/>
<path transform="matrix(1.00005,0,0,-1,29.565728,15.525)" stroke-width=".3985" stroke-linecap="butt" stroke-miterlimit="10" stroke-linejoin="miter" fill="none" stroke="#000000" d="M85.04042-2.83484V2.83441"/>
<use data-text="4" xlink:href="#font_2_3" transform="matrix(9.963098,0,0,-9.9626,112.11985,9.171)"/>
<path transform="matrix(1.00005,0,0,-1,29.565728,15.525)" stroke-width="1.59404" stroke-linecap="butt" stroke-miterlimit="10" stroke-linejoin="miter" fill="none" stroke="#000000" d="M-28.3468 0H106.57275"/>
<path transform="matrix(1.00005,0,0,-1,136.1438,15.525)" d="M6.81448 0C4.79533 .37857 1.51433 1.51433-.75716 2.83936V-2.83936C1.51433-1.51433 4.79533-.37857 6.81448 0"/>
<use data-text="x" xlink:href="#font_3_1" transform="matrix(9.963098,0,0,-9.9626,140.11125,11.407)"/>
<path transform="matrix(1.00005,0,0,-1,29.565728,15.525)" stroke-width=".3985" stroke-linecap="butt" stroke-miterlimit="10" stroke-linejoin="miter" fill="none" stroke="#000000" d="M2.81807-17.00824C2.81807-15.45184 1.55638-14.19016 0-14.19016-1.55638-14.19016-2.81807-15.45184-2.81807-17.00824-2.81807-18.56464-1.55638-19.82632 0-19.82632 1.55638-19.82632 2.81807-18.56464 2.81807-17.00824ZM0-17.00824"/>
<path transform="matrix(1.00005,0,0,-1,29.565728,15.525)" stroke-width="1.59404" stroke-linecap="butt" stroke-miterlimit="10" stroke-linejoin="miter" fill="none" stroke="#000000" d="M-24.82698-17.00824H-3.01733"/>
<path transform="matrix(1.00005,0,0,-1,29.565728,15.525)" stroke-width=".3985" stroke-linecap="butt" stroke-miterlimit="10" stroke-linejoin="miter" fill="none" stroke="#000000" d="M59.51169-17.00824C59.51169-15.45184 58.25-14.19016 56.69362-14.19016 55.13722-14.19016 53.87553-15.45184 53.87553-17.00824 53.87553-18.56464 55.13722-19.82632 56.69362-19.82632 58.25-19.82632 59.51169-18.56464 59.51169-17.00824ZM56.69362-17.00824"/>
<path transform="matrix(1.00005,0,0,-1,29.565728,15.525)" stroke-width="1.59404" stroke-linecap="butt" stroke-miterlimit="10" stroke-linejoin="miter" fill="none" stroke="#000000" d="M59.71095-17.00824H109.86742"/>
<path transform="matrix(1.00005,0,0,-1,29.565728,15.525)" d="M31.16489-34.0165C31.16489-32.46011 29.9032-31.19843 28.3468-31.19843 26.7904-31.19843 25.52872-32.46011 25.52872-34.0165 25.52872-35.57289 26.7904-36.83458 28.3468-36.83458 29.9032-36.83458 31.16489-35.57289 31.16489-34.0165ZM28.3468-34.0165"/>
<path transform="matrix(1.00005,0,0,-1,29.565728,15.525)" d="M87.8585-34.0165C87.8585-32.46011 86.59682-31.19843 85.04042-31.19843 83.48402-31.19843 82.22234-32.46011 82.22234-34.0165 82.22234-35.57289 83.48402-36.83458 85.04042-36.83458 86.59682-36.83458 87.8585-35.57289 87.8585-34.0165ZM85.04042-34.0165"/>
<path transform="matrix(1.00005,0,0,-1,29.565728,15.525)" stroke-width="1.59404" stroke-linecap="butt" stroke-miterlimit="10" stroke-linejoin="miter" fill="none" stroke="#000000" d="M31.36414-34.0165H82.02309"/>
<path transform="matrix(1.00005,0,0,-1,29.565728,15.525)" stroke-width=".3985" stroke-linecap="butt" stroke-miterlimit="10" stroke-linejoin="miter" fill="none" stroke="#000000" d="M59.51169 0C59.51169 1.55638 58.25 2.81807 56.69362 2.81807 55.13722 2.81807 53.87553 1.55638 53.87553 0 53.87553-1.55638 55.13722-2.81807 56.69362-2.81807 58.25-2.81807 59.51169-1.55638 59.51169 0ZM56.69362 0"/>
<path transform="matrix(1.00005,0,0,-1,29.565728,15.525)" d="M87.8585 0C87.8585 1.55638 86.59682 2.81807 85.04042 2.81807 83.48402 2.81807 82.22234 1.55638 82.22234 0 82.22234-1.55638 83.48402-2.81807 85.04042-2.81807 86.59682-2.81807 87.8585-1.55638 87.8585 0ZM85.04042 0" fill="#ff0000" fill-opacity=".5"/>
<path transform="matrix(1.00005,0,0,-1,29.565728,15.525)" stroke-width="3.9851" stroke-linecap="butt" stroke-miterlimit="10" stroke-linejoin="miter" fill="none" stroke="#ff0000" stroke-opacity=".5" d="M59.71095 0H82.02309"/>
</svg>
