<svg xmlns="http://www.w3.org/2000/svg" xmlns:xlink="http://www.w3.org/1999/xlink" xmlns:inkscape="http://www.inkscape.org/namespaces/inkscape" version="1.1" width="118" height="88" viewBox="0 0 118 88">
<defs>
<path id="font_1_2" d="M.45999146 .31976319C.45999146 .39982606 .45498658 .47988893 .41999818 .5539398 .37399293 .65000918 .2919922 .6660156 .25 .6660156 .18998719 .6660156 .116989139 .64001467 .07598877 .54693606 .04399109 .47789 .038986207 .39982606 .038986207 .31976319 .038986207 .24472046 .042999269 .15464783 .083999637 .07859802 .1269989-.0024719239 .19999695-.022460938 .24899292-.022460938 .30299378-.022460938 .3789978-.0014648438 .4229889 .09359741 .45498658 .16265869 .45999146 .2407074 .45999146 .31976319M.24899292-.00047302247C.20999146-.00047302247 .15098572 .024551392 .1329956 .12062073 .12199402 .18066406 .12199402 .2727356 .12199402 .3317871 .12199402 .39582826 .12199402 .46188355 .12998963 .5159149 .14898682 .63500979 .22399903 .64401248 .24899292 .64401248 .28199769 .64401248 .34799195 .6259918 .36698915 .52693179 .3769989 .47088624 .3769989 .39482118 .3769989 .3317871 .3769989 .25672914 .3769989 .18867493 .3659973 .12461853 .35099793 .029556275 .2939911-.00047302247 .24899292-.00047302247Z"/>
<path id="font_1_3" d="M.2939911 .64004519C.2939911 .66400149 .2939911 .6660156 .2709961 .6660156 .20899964 .60227969 .12098694 .60227969 .08898926 .60227969V.57128909C.10899353 .57128909 .16799927 .57128909 .21998596 .5972748V.07902527C.21998596 .042999269 .21699524 .0309906 .1269989 .0309906H.09498596V0C.12998963 .0029907227 .21699524 .0029907227 .25698854 .0029907227 .29699708 .0029907227 .38398744 .0029907227 .4189911 0V.0309906H.3869934C.29699708 .0309906 .2939911 .041992189 .2939911 .07902527V.64004519Z"/>
<path id="font_2_3" d="M.33399964 .30233766C.33999635 .32835389 .36299134 .42037965 .43299867 .42037965 .43798829 .42037965 .46199037 .42037965 .48298646 .40734864 .45498658 .402359 .43499757 .37734986 .43499757 .35334779 .43499757 .33735658 .44599916 .31835938 .47299195 .31835938 .49499513 .31835938 .5269928 .3363495 .5269928 .37635804 .5269928 .42837525 .46798707 .4423828 .43399049 .4423828 .37599183 .4423828 .34098817 .38935853 .32899476 .36634828 .3039856 .43237306 .25 .4423828 .22099304 .4423828 .116989139 .4423828 .05999756 .3133545 .05999756 .28834535 .05999756 .27833558 .069992069 .27833558 .07199097 .27833558 .07998657 .27833558 .08299255 .28033448 .084991458 .28933717 .11898804 .39535523 .18499756 .42037965 .21899414 .42037965 .23799134 .42037965 .272995 .4113617 .272995 .35334779 .272995 .32235719 .2559967 .25532533 .21899414 .11528015 .20298767 .053268434 .16799927 .011245728 .12399292 .011245728 .117996219 .011245728 .09498596 .011245728 .07398987 .024276734 .09899902 .029266358 .12098694 .05027771 .12098694 .07827759 .12098694 .105270389 .09899902 .11328125 .083999637 .11328125 .053985597 .11328125 .0289917 .08728027 .0289917 .055267335 .0289917 .009246826 .07899475-.0107421879 .12298584-.0107421879 .18899536-.0107421879 .22499085 .059280397 .22799683 .0652771 .23999024 .028274537 .27598573-.0107421879 .33599855-.0107421879 .43899537-.0107421879 .49598695 .118270877 .49598695 .14328003 .49598695 .1532898 .4869995 .1532898 .48399354 .1532898 .47499085 .1532898 .47299195 .14929199 .47099305 .14228821 .43798829 .03527832 .36999513 .011245728 .33799745 .011245728 .29899598 .011245728 .2829895 .043273927 .2829895 .07727051 .2829895 .09927368 .2889862 .121276859 .2999878 .16529846L.33399964 .30233766Z"/>
<path id="font_2_2" d="M.7559967 .577652C.7659912 .61763 .7839966 .64860537 .8639984 .6516113 .86898806 .6516113 .8809967 .65260317 .8809967 .6716156 .8809967 .6726074 .8809967 .6826172 .8679962 .6826172 .83499148 .6826172 .7999878 .6796112 .7669983 .6796112 .73298647 .6796112 .69799807 .6826172 .6649933 .6826172 .6589966 .6826172 .6469879 .6826172 .6469879 .6626129 .6469879 .6516113 .6569977 .6516113 .6649933 .6516113 .7220001 .65060427 .73298647 .6296234 .73298647 .6076355 .73298647 .6046295 .73098757 .5896454 .7299957 .5866394L.6179962 .141922 .39698792 .66360476C.3889923 .6816101 .3880005 .6826172 .36499024 .6826172H.23098755C.21099854 .6826172 .20199585 .6826172 .20199585 .6626129 .20199585 .6516113 .21099854 .6516113 .22999573 .6516113 .23498535 .6516113 .2979889 .6516113 .2979889 .64260867L.1639862 .10594177C.1539917 .065963748 .13699341 .033996583 .055999757 .0309906 .049987794 .0309906 .038986207 .02999878 .038986207 .010986328 .038986207 .0039978029 .04399109 0 .051986696 0 .083999637 0 .11898804 .0029907227 .1519928 .0029907227 .18598938 .0029907227 .22200012 0 .25498963 0 .2599945 0 .272995 0 .272995 .019989014 .272995 .02999878 .2639923 .0309906 .25299073 .0309906 .19499207 .032989503 .18699646 .054977418 .18699646 .07496643 .18699646 .081954959 .18798828 .08695984 .19099427 .09794617L.32299806 .6256256C.32699586 .6196289 .32699586 .61763 .33198548 .6076355L.58099368 .018997193C.58799746 .0019989014 .59098818 0 .59999087 0 .61099246 0 .61099246 .0029907227 .6159973 .020996094L.7559967 .577652Z"/>
<path id="font_3_1" d="M.6589966 .23046875C.6759949 .23046875 .69400027 .23046875 .69400027 .25045777 .69400027 .27046205 .6759949 .27046205 .6589966 .27046205H.117996219C.100997928 .27046205 .08299255 .27046205 .08299255 .25045777 .08299255 .23046875 .100997928 .23046875 .117996219 .23046875H.6589966Z"/>
<path id="font_1_1" d="M.40899659 .23046875H.6879883C.70199587 .23046875 .72099307 .23046875 .72099307 .25045777 .72099307 .27046205 .70199587 .27046205 .6879883 .27046205H.40899659V.5500183C.40899659 .56399539 .40899659 .5830078 .3889923 .5830078 .36898805 .5830078 .36898805 .56399539 .36898805 .5500183V.27046205H.08898926C.07499695 .27046205 .055999757 .27046205 .055999757 .25045777 .055999757 .23046875 .07499695 .23046875 .08898926 .23046875H.36898805V-.05000305C.36898805-.06401062 .36898805-.08300781 .3889923-.08300781 .40899659-.08300781 .40899659-.06401062 .40899659-.05000305V.23046875Z"/>
<path id="font_2_1" d="M.15899658 .07795715C.14898682 .038986207 .14698792 .0309906 .067993167 .0309906 .050994874 .0309906 .039993287 .0309906 .039993287 .011993408 .039993287 0 .04899597 0 .067993167 0H.39898683C.6069946 0 .80400088 .21087647 .80400088 .42974855 .80400088 .5706482 .71899417 .6826172 .56900027 .6826172H.23298645C.21398926 .6826172 .20298767 .6826172 .20298767 .66360476 .20298767 .6516113 .21199036 .6516113 .23199463 .6516113 .24499512 .6516113 .2630005 .65060427 .2749939 .6496124 .29100038 .6476135 .29699708 .64460757 .29699708 .6336212 .29699708 .6296234 .29599 .62661746 .29299928 .614624L.15899658 .07795715M.375 .6136322C.38398744 .64860537 .38598634 .6516113 .42900086 .6516113H.5359955C.6339874 .6516113 .71699526 .5986328 .71699526 .46672059 .71699526 .41775514 .69699099 .25386048 .6119995 .1439209 .58299258 .10694885 .5039978 .0309906 .3809967 .0309906H.2679901C.2539978 .0309906 .2519989 .0309906 .24598694 .03199768 .23599243 .032989503 .23298645 .033996583 .23298645 .041992189 .23298645 .04498291 .23298645 .04698181 .23799134 .064971927L.375 .6136322Z"/>
<path id="font_4_2" d="M.83399966 .5736542C.84399417 .6116333 .8600006 .64460757 .9399872 .64660647 .94499209 .64660647 .95999148 .6476135 .95999148 .6686096 .95999148 .6746063 .95500186 .6826172 .94499209 .6826172 .9119873 .6826172 .875 .6786041 .84098818 .6786041 .81700137 .6786041 .7589874 .6826172 .7350006 .6826172 .7299957 .6826172 .71499636 .6826172 .71499636 .660614 .71499636 .6476135 .7279968 .64660647 .7369995 .64660647 .7839966 .6456146 .8009949 .63061526 .8009949 .6056366 .8009949 .597641 .7999878 .59265139 .7969971 .5816498L.6879883 .1459198 .43399049 .66560366C.42599488 .6826172 .42399598 .6826172 .3999939 .6826172H.2630005C.24398804 .6826172 .23098755 .6826172 .23098755 .660614 .23098755 .64660647 .24299622 .64660647 .2639923 .64660647 .2849884 .64660647 .30699159 .6456146 .32798768 .6416168L.19400025 .10694885C.18499756 .06896973 .16799927 .038986207 .08999634 .035995485 .08299255 .035995485 .068984989 .034988405 .068984989 .01499939 .068984989 .0039978029 .07699585 0 .083999637 0 .116989139 0 .1539917 .0039978029 .18798828 .0039978029 .21199036 .0039978029 .269989 0 .2939911 0 .3039856 0 .31399537 .004989624 .31399537 .020996094 .31399537 .034988405 .3019867 .035995485 .29100038 .035995485 .22799683 .037994386 .22799683 .0639801 .22799683 .07797241 .22799683 .081970218 .22799683 .08695984 .23199463 .10295105L.3600006 .614624 .6519928 .016998291C.6599884 .0009918213 .6639862 0 .673996 0 .6899872 0 .6899872 .0029907227 .69499209 .020996094L.83399966 .5736542Z"/>
<path id="font_4_1" d="M.18899536 .07797241C.18099976 .04399109 .1789856 .035995485 .100997928 .035995485 .08299255 .035995485 .070999149 .035995485 .070999149 .01399231 .070999149 0 .08299255 0 .100997928 0H.45799256C.6799927 0 .8929901 .20388794 .8929901 .42175294 .8929901 .5676575 .7919922 .6826172 .6289978 .6826172H.2649994C.24499512 .6826172 .23298645 .6826172 .23298645 .660614 .23298645 .64660647 .24398804 .64660647 .2659912 .64660647 .28199769 .64660647 .28599549 .64660647 .3039856 .64460757 .32398988 .64260867 .32598878 .64060977 .32598878 .63061526 .32598878 .62861636 .32598878 .6236267 .32199098 .6086426L.18899536 .07797241M.41299439 .6126251C.42099 .6436157 .42199708 .64660647 .46398927 .64660647H.59199526C.70399478 .64660647 .7979889 .59065249 .7979889 .45472718 .7979889 .43174745 .7879944 .2588501 .6879883 .14492798 .6489868 .09994507 .5629883 .035995485 .43998719 .035995485H.3039856C.272995 .035995485 .27198792 .036987306 .27198792 .04598999 .27198792 .04698181 .27198792 .051986696 .27598573 .066970828L.41299439 .6126251Z"/>
<path id="font_5_1" d="M.4039917 .81933596C.40699769 .8333435 .4079895 .8363495 .4079895 .8403473 .4079895 .8573456 .3929901 .86035159 .3880005 .86035159 .37199403 .86035159 .36799623 .8443451 .3659973 .8343506L.33499146 .69433596H.09098816C.07398987 .69433596 .055999757 .69433596 .055999757 .67433169 .055999757 .6543274 .07398987 .6543274 .09098816 .6543274H.32598878L.26098634 .3671875H.10499573C.08799744 .3671875 .069992069 .3671875 .069992069 .34718324 .069992069 .32717896 .08799744 .32717896 .10499573 .32717896H.2519989L.18798828 .039993287H.09098816C.07398987 .039993287 .055999757 .039993287 .055999757 .019989014 .055999757 0 .07398987 0 .09098816 0H.1789856C.16799927-.04600525 .17298889-.029006958 .1619873-.074020389 .15699768-.09802246 .14698792-.14202881 .14698792-.14602661 .14698792-.1630249 .1619873-.16601563 .16699219-.16601563 .18299866-.16601563 .18598938-.15202332 .18798828-.14202881 .20298767-.07701111 .20498657-.07002258 .21998596 0H.46398927C.49499513 0 .49899293 .0029907227 .49899293 .034988405V.6593323C.49899293 .6903229 .49598695 .69433596 .46398927 .69433596H.37599183L.4039917 .81933596M.30299378 .3671875 .36698915 .6543274H.45899964V.3671875H.30299378M.22898865 .039993287 .2939911 .32717896H.45899964V.039993287H.22898865Z"/>
</defs>
<path transform="matrix(1,0,0,-1.00003,57.789,14.696051)" stroke-width=".3985" stroke-linecap="butt" stroke-miterlimit="10" stroke-linejoin="miter" fill="none" stroke="#000000" d="M0-2.83484V2.83441"/>
<use data-text="0" xlink:href="#font_1_2" transform="matrix(9.9626,0,0,-9.962899,55.298006,8.34186)"/>
<path transform="matrix(1,0,0,-1.00003,57.789,14.696051)" stroke-width=".3985" stroke-linecap="butt" stroke-miterlimit="10" stroke-linejoin="miter" fill="none" stroke="#000000" d="M28.3468-2.83484V2.83441"/>
<use data-text="1" xlink:href="#font_1_3" transform="matrix(9.9626,0,0,-9.962899,83.645008,8.34186)"/>
<path transform="matrix(1,0,0,-1.00003,57.789,14.696051)" stroke-width="1.59404" stroke-linecap="butt" stroke-miterlimit="10" stroke-linejoin="miter" fill="none" stroke="#000000" d="M-28.3468 0H49.87914"/>
<path transform="matrix(1,0,0,-1.00003,107.66814,14.696051)" d="M6.81448 0C4.79533 .37857 1.51433 1.51433-.75716 2.83936V-2.83936C1.51433-1.51433 4.79533-.37857 6.81448 0"/>
<use data-text="x" xlink:href="#font_2_3" transform="matrix(9.9626,0,0,-9.962899,111.636,10.577927)"/>
<path transform="matrix(1,0,0,-1.00003,57.789,14.696051)" stroke-width=".3985" stroke-linecap="butt" stroke-miterlimit="10" stroke-linejoin="miter" fill="none" stroke="#000000" d="M42.52017-15.59082"/>
<use data-text="N" xlink:href="#font_2_2" transform="matrix(9.9626,0,0,-9.962899,10.722992,33.69162)"/>
<use data-text="&#x2212;" xlink:href="#font_3_1" transform="matrix(9.9626,0,0,-9.962899,39.740999,32.778596)"/>
<use data-text="0" xlink:href="#font_1_2" transform="matrix(9.9626,0,0,-9.962899,55.298006,33.497617)"/>
<use data-text="+" xlink:href="#font_1_1" transform="matrix(9.9626,0,0,-9.962899,68.088,32.778596)"/>
<use data-text="+" xlink:href="#font_1_1" transform="matrix(9.9626,0,0,-9.962899,96.435,32.778596)"/>
<path transform="matrix(1,0,0,-1.00003,57.789,14.696051)" stroke-width=".3985" stroke-linecap="butt" stroke-miterlimit="10" stroke-linejoin="miter" fill="none" stroke="#000000" d="M42.52017-38.26836"/>
<use data-text="D" xlink:href="#font_2_1" transform="matrix(9.9626,0,0,-9.962899,11.005997,56.3693)"/>
<use data-text="&#x2212;" xlink:href="#font_3_1" transform="matrix(9.9626,0,0,-9.962899,39.740999,55.456277)"/>
<use data-text="&#x2212;" xlink:href="#font_3_1" transform="matrix(9.9626,0,0,-9.962899,68.088,55.456277)"/>
<use data-text="0" xlink:href="#font_1_2" transform="matrix(9.9626,0,0,-9.962899,83.645008,56.1763)"/>
<use data-text="+" xlink:href="#font_1_1" transform="matrix(9.9626,0,0,-9.962899,96.435,55.456277)"/>
<path transform="matrix(1,0,0,-1.00003,57.789,14.696051)" stroke-width=".3985" stroke-linecap="butt" stroke-miterlimit="10" stroke-linejoin="miter" fill="none" stroke="#000000" d="M42.52017-60.94588"/>
<use data-text="N" xlink:href="#font_4_2" transform="matrix(6.9738,0,0,-6.9740097,11.738998,74.34684)"/>
<path transform="matrix(1,0,0,-1.00003,-129.245,76.57191)" stroke-width=".3985" stroke-linecap="butt" stroke-miterlimit="10" stroke-linejoin="miter" fill="none" stroke="#000000" d="M140.984 .793H148.043"/>
<use data-text="D" xlink:href="#font_4_1" transform="matrix(6.9738,0,0,-6.9740097,11.904007,81.70506)"/>
<use data-text="+" xlink:href="#font_1_1" transform="matrix(9.9626,0,0,-9.962899,39.740999,78.13496)"/>
<use data-text="0" xlink:href="#font_1_2" transform="matrix(9.9626,0,0,-9.962899,55.298006,78.85398)"/>
<use data-text="&#x2212;" xlink:href="#font_3_1" transform="matrix(9.9626,0,0,-9.962899,68.088,78.13496)"/>
<use data-text="&#x2204;" xlink:href="#font_5_1" transform="matrix(9.9626,0,0,-9.962899,83.368007,79.07498)"/>
<use data-text="+" xlink:href="#font_1_1" transform="matrix(9.9626,0,0,-9.962899,96.435,78.13496)"/>
<path transform="matrix(1,0,0,-1.00003,57.789,14.696051)" stroke-width=".3985" stroke-linecap="butt" stroke-miterlimit="10" stroke-linejoin="miter" fill="none" stroke="#000000" d="M-56.69362-49.6069H56.69362"/>
<path transform="matrix(1,0,0,-1.00003,57.789,14.696051)" stroke-width=".3985" stroke-linecap="butt" stroke-dasharray=".3985,1.99255" stroke-miterlimit="10" stroke-linejoin="miter" fill="none" stroke="#000000" d="M0 0V-72.28444"/>
<path transform="matrix(1,0,0,-1.00003,57.789,14.696051)" stroke-width=".3985" stroke-linecap="butt" stroke-dasharray=".3985,1.99255" stroke-miterlimit="10" stroke-linejoin="miter" fill="none" stroke="#000000" d="M28.3468 0V-72.28444"/>
</svg>
