<svg xmlns="http://www.w3.org/2000/svg" xmlns:xlink="http://www.w3.org/1999/xlink" xmlns:inkscape="http://www.inkscape.org/namespaces/inkscape" version="1.1" width="291" height="244" viewBox="0 0 291 244">
<defs>
<path id="font_1_3" d="M.2679901 .31362916H.3039856L.45399476 .08192444C.46398927 .06594849 .48799134 .026992798 .49899293 .011993408 .5059967 0 .5089874 0 .5319977 0H.66999819C.6879883 0 .7029877 0 .7029877 .017990113 .7029877 .025985718 .69699099 .032989503 .6879883 .034988405 .651001 .04298401 .60198977 .10890198 .5779877 .14085388 .57099917 .15083313 .5209961 .2167511 .45399476 .32463075 .54299929 .34062196 .6289978 .37861634 .6289978 .4975891 .6289978 .63656619 .48199464 .6845703 .3639984 .6845703H.049987794C.03199768 .6845703 .015991211 .6845703 .015991211 .66656497 .015991211 .64956668 .034988405 .64956668 .042999269 .64956668 .099990848 .64956668 .10499573 .64256289 .10499573 .5925751V.091918949C.10499573 .04197693 .099990848 .034988405 .042999269 .034988405 .034988405 .034988405 .015991211 .034988405 .015991211 .017990113 .015991211 0 .03199768 0 .049987794 0H.32398988C.34199525 0 .35699464 0 .35699464 .017990113 .35699464 .034988405 .33999635 .034988405 .32899476 .034988405 .27198792 .034988405 .2679901 .04298401 .2679901 .091918949V.31362916M.46099855 .36262513C.4889984 .39961244 .49198915 .4526062 .49198915 .4965973 .49198915 .5445862 .48599244 .59757998 .45399476 .63856509 .49499513 .6295624 .59399417 .5985718 .59399417 .4975891 .59399417 .43260194 .56399539 .3816223 .46099855 .36262513M.2679901 .59558108C.2679901 .61657717 .2679901 .64956668 .32998658 .64956668 .4149933 .64956668 .45700074 .614563 .45700074 .4965973 .45700074 .36761476 .42599488 .3486328 .2679901 .3486328V.59558108M.13198853 .034988405C.13999939 .052963258 .13999939 .08093262 .13999939 .089920047V.594574C.13999939 .6045685 .13999939 .6315613 .13198853 .64956668H.24598694C.23298645 .6335602 .23298645 .61357119 .23298645 .5985718V.089920047C.23298645 .079940799 .23298645 .052963258 .24099732 .034988405H.13198853M.34498597 .31362916C.35198976 .31462098 .35598756 .31562806 .3639984 .31562806 .3789978 .31562806 .40098573 .31762696 .41600038 .31962586 .43099977 .2956543 .5389862 .117889408 .621994 .034988405H.5249939L.34498597 .31362916Z"/>
<path id="font_1_2" d="M.47799684-.008560181C.61898806 .020431519 .7449951 .13237 .7449951 .3422699 .7449951 .59413149 .56799319 .70410159 .3889923 .70410159 .20599365 .70410159 .032989503 .58914187 .032989503 .34326173 .032989503 .12937927 .16099549 .027435303 .2789917-.0035552979 .32398988-.10656738 .4229889-.17855835 .5469971-.17855835 .5970001-.17855835 .6519928-.16856385 .70399478-.14855957 .7220001-.14155579 .7319946-.13755799 .7319946-.12556458 .7319946-.11355591 .72299197-.107559207 .71499636-.107559207 .71299746-.107559207 .71199038-.107559207 .7049866-.109558109 .6769867-.11656189 .66600039-.11656189 .6499939-.11656189 .55799868-.11656189 .5009918-.058563234 .47799684-.008560181M.25099183 .6411133C.18998719 .57014468 .17399597 .45321656 .17399597 .34326173 .17399597 .24531555 .18598938 .12037659 .2519989 .042419435 .18299866 .06840515 .067993167 .14837647 .067993167 .3422699 .067993167 .54615786 .19198609 .6201172 .25 .6421051L.25099183 .6411133M.5279999 .6421051C.59498599 .61712649 .70999148 .5371704 .70999148 .34326173 .70999148 .13937378 .58599856 .06541443 .526001 .042419435 .58799746 .11538696 .60398867 .23233032 .60398867 .3422699 .60398867 .44021607 .59199526 .565155 .5269928 .6411133L.5279999 .6421051M.3889923 .016433716C.22698975 .016433716 .20899964 .22833252 .20899964 .3422699 .20899964 .46220399 .22898865 .6690979 .3889923 .6690979 .5509949 .6690979 .56900027 .45721437 .56900027 .34326173 .56900027 .22332764 .548996 .016433716 .3889923 .016433716M.32299806-.0135650639C.35099793-.018554688 .3880005-.018554688 .3889923-.018554688 .3939972-.018554688 .4149933-.018554688 .44299317-.015563965 .46998597-.078567508 .5169983-.11656189 .5669861-.13656616 .57699587-.14056397 .5779877-.14056397 .5779877-.14155579 .5779877-.14355469 .55999758-.14355469 .5469971-.14355469 .46199037-.14355469 .375-.1035614 .32299806-.0135650639Z"/>
<path id="font_1_4" d="M.59599307 .6485596C.6049957 .66156008 .6049957 .66355898 .6049957 .66656497 .6049957 .6845703 .58999636 .6845703 .57199099 .6845703H.11399841C.08198547 .6845703 .08198547 .68156436 .07899475 .65556338L.06399536 .5206604 .06199646 .5076599C.06199646 .4936676 .07299805 .48867799 .07998657 .48867799 .08898926 .48867799 .09498596 .4956665 .09700012 .5036621 .100997928 .5276489 .10998535 .57162478 .17098999 .6095886 .22799683 .64656069 .2979889 .64956668 .33198548 .64956668H.41299439L.036987306 .035995485C.027999878 .022994996 .027999878 .020996094 .027999878 .017990113 .027999878 0 .04399109 0 .06199646 0H.57499697C.6049957 0 .6049957 .0019989014 .60899356 .027999878L.6359863 .22485352C.6359863 .2358551 .6269989 .24284363 .61898806 .24284363 .60398867 .24284363 .60198977 .23284912 .598999 .21287537 .58200076 .13092041 .5039978 .034988405 .3619995 .034988405H.21998596L.59599307 .6485596M.11299133 .64956668H.1659851V.6485596C.13899231 .63357546 .11999512 .6155853 .10798645 .604599L.11299133 .64956668M.45399476 .64956668H.55599978L.1789856 .034988405H.07699585L.45399476 .64956668M.5069885 .035995485C.5349884 .051986696 .5609894 .07395935 .58399966 .10194397 .58200076 .081954959 .5799866 .07096863 .57499697 .034988405H.5069885V.035995485Z"/>
<path id="font_1_1" d="M.11199951 .5946045V.10694885C.11199951 .053985597 .10398865 .035995485 .052993776 .034988405 .041992189 .034988405 .024993897 .033996583 .024993897 .017990113 .024993897 0 .040985109 0 .05899048 0H.21398926C.23199463 0 .24699402 0 .24699402 .017990113 .24699402 .033996583 .23098755 .034988405 .21699524 .034988405 .1619873 .035995485 .1539917 .05697632 .1539917 .108947757V.5666199L.58599856-.0035552979C.59498599-.015563965 .59999087-.018554688 .6069946-.018554688 .6239929-.018554688 .6239929-.0025634766 .6239929 .014419556V.57865908C.6239929 .6345825 .6329956 .6485596 .67900088 .64956668 .68499758 .64956668 .70199587 .6505585 .70199587 .66656497 .70199587 .6845703 .68699648 .6845703 .6689911 .6845703H.522995C.5049896 .6845703 .4889984 .6845703 .4889984 .66656497 .4889984 .64956668 .5069885 .64956668 .5179901 .64956668 .57398989 .6485596 .58200076 .6285858 .58200076 .5756531V.26307679L.27999879 .67056277C.269989 .6845703 .2669983 .6845703 .24398804 .6845703H.069992069C.051986696 .6845703 .036987306 .6845703 .036987306 .66656497 .036987306 .65156558 .051986696 .64956668 .057998659 .64956668 .084991458 .64656069 .10398865 .6305847 .11399841 .61860659 .11199951 .6105957 .11199951 .6085968 .11199951 .5946045M.58898928 .050979616 .1539917 .62557986C.14399719 .63757327 .14399719 .63957217 .1329956 .64956668H.2519989L.58898928 .19488526V.050979616Z"/>
<path id="font_2_1" d="M.47299195 .31976319C.47299195 .38682557 .46998597 .47288514 .43499757 .5479431 .3909912 .64201357 .31498719 .6660156 .25698854 .6660156 .19699097 .6660156 .12098694 .64201357 .07699585 .5459442 .04499817 .47688294 .039993287 .39582826 .039993287 .31976319 .039993287 .25471498 .041992189 .15765381 .084991458 .07858276 .13198853-.0064697267 .20999146-.022460938 .2559967-.022460938 .32099916-.022460938 .394989 .0055389406 .43699647 .097595218 .46699525 .1646576 .47299195 .23971558 .47299195 .31976319M.25698854 .002532959C.22698975 .002532959 .15499878 .016540528 .13598633 .12962342 .12599182 .18867493 .12599182 .2747345 .12599182 .33177186 .12599182 .39982606 .12599182 .47888185 .13798523 .53393557 .1579895 .6230011 .22200012 .64100649 .2559967 .64100649 .2939911 .64100649 .35699464 .62098696 .37599183 .5279236 .3869934 .47288514 .3869934 .39482118 .3869934 .33177186 .3869934 .2697296 .3869934 .18566895 .3769989 .12661743 .35598756 .012542725 .28199769 .002532959 .25698854 .002532959Z"/>
<path id="font_2_2" d="M.3039856 .6392822C.3039856 .6642761 .30299378 .666275 .27799989 .666275 .21598816 .60227969 .12399292 .60227969 .09298706 .60227969V.57128909C.11199951 .57128909 .17298889 .57128909 .22698975 .5972748V.08001709C.22698975 .042999269 .22399903 .0309906 .1309967 .0309906H.09899902V0C.1349945 .0029907227 .22399903 .0029907227 .2649994 .0029907227 .30599977 .0029907227 .3959961 .0029907227 .43199159 0V.0309906H.3999939C.30699159 .0309906 .3039856 .042999269 .3039856 .08001709V.6392822Z"/>
<path id="font_2_3" d="M.46199037 .17704773H.43399049C.43199159 .16404724 .42399598 .10501099 .41099549 .08900452 .40499879 .07998657 .33599855 .07998657 .31599427 .07998657H.13798523L.23699951 .17404175C.40098573 .3161316 .46199037 .36915589 .46199037 .4711914 .46199037 .5860901 .36698915 .6660156 .24398804 .6660156 .1289978 .6660156 .050994874 .575119 .050994874 .4841919 .050994874 .43418885 .09399414 .42919923 .102996829 .42919923 .125 .42919923 .15499878 .44519044 .15499878 .48120118 .15499878 .51119998 .13398743 .5332031 .102996829 .5332031 .09799194 .5332031 .09498596 .5332031 .09098816 .53219607 .114990238 .6030731 .1789856 .63500979 .23298645 .63500979 .33499146 .63500979 .36999513 .5401764 .36999513 .4711914 .36999513 .36915589 .29299928 .28611756 .24499512 .23408509L.06199646 .035995485C.050994874 .024993897 .050994874 .022994996 .050994874 0H.43399049L.46199037 .17704773Z"/>
<path id="font_3_1" d="M.6749878 .22944641C.69299319 .22944641 .71199038 .22944641 .71199038 .25144959 .71199038 .27246095 .69200137 .27246095 .6749878 .27246095H.12298584C.10598755 .27246095 .085998538 .27246095 .085998538 .25144959 .085998538 .22944641 .10499573 .22944641 .12298584 .22944641H.6749878Z"/>
<path id="font_4_3" d="M.2939911 .33203126C.3789978 .33203126 .43598939 .274765 .43598939 .17237854 .43598939 .062408449 .36999513 .014511108 .29699708 .014511108 .269989 .014511108 .16699219 .020492554 .12199402 .07836914 .16099549 .0823822 .1769867 .10836792 .1769867 .13537598 .1769867 .16937256 .15299988 .19238281 .11999512 .19238281 .09298706 .19238281 .06298828 .17536927 .06298828 .13337708 .06298828 .034469606 .17298889-.021484375 .2999878-.021484375 .44799806-.021484375 .5469971 .07337952 .5469971 .17237854 .5469971 .24562073 .4909973 .3229828 .37199403 .35302735 .45098878 .37902833 .5149994 .44306947 .5149994 .5251007 .5149994 .60505679 .42099 .66503909 .30099488 .66503909 .18399048 .66503909 .09498596 .61105349 .09498596 .5290985 .09498596 .48609925 .12799073 .47409059 .147995 .47409059 .17399597 .47409059 .20098877 .49209596 .20098877 .5270996 .20098877 .5580902 .1789856 .5760956 .1519928 .5800934 .19898987 .6320343 .2899933 .6320343 .29899598 .6320343 .34999085 .6320343 .4139862 .60806277 .4139862 .5251007 .4139862 .47009278 .3829956 .37402345 .2829895 .36802674 .2649994 .36701966 .23799134 .36502076 .22898865 .36502076 .21899414 .36402894 .20799256 .36302186 .20799256 .34802247 .20799256 .33203126 .21899414 .33203126 .23599243 .33203126H.2939911Z"/>
<path id="font_4_4" d="M.56399539 .1640625V.2030487H.44699098V.6448059C.44699098 .6678009 .44699098 .6748047 .42199708 .6748047 .4039917 .6748047 .4019928 .6717987 .3929901 .65979006L.04598999 .2030487V.1640625H.35699464V.08401489C.35699464 .050994874 .35699464 .038986207 .272995 .038986207H.24398804V0C.2639923 .0009918213 .35798646 .0039978029 .4019928 .0039978029 .44599916 .0039978029 .5399933 .0009918213 .55999758 0V.038986207H.5309906C.44699098 .038986207 .44699098 .050994874 .44699098 .08401489V.1640625H.56399539M.3639984 .56585696V.2030487H.08898926L.3639984 .56585696Z"/>
<path id="font_4_1" d="M.35899354 .6349335C.35899354 .66503909 .35499574 .66503909 .32499696 .66503909 .25898744 .60058596 .15699768 .60058596 .12098694 .60058596V.5615845C.14698792 .5615845 .21299744 .5615845 .272995 .58958438V.08496094C.272995 .051986696 .272995 .038986207 .16999817 .038986207H.1269989V0C.18199158 .0039978029 .2599945 .0039978029 .31599427 .0039978029 .37199403 .0039978029 .44999696 .0039978029 .5049896 0V.038986207H.46199037C.35899354 .038986207 .35899354 .051986696 .35899354 .08496094V.6349335Z"/>
<path id="font_4_2" d="M.5379944 .18702698H.5009918C.49899293 .17301941 .4889984 .10699463 .47399903 .09599304 .46699525 .08999634 .38598634 .08999634 .37199403 .08999634H.18499756L.31298829 .19403076C.34700013 .22103882 .43598939 .28504945 .46699525 .31506349 .49699403 .3450775 .5379944 .39608766 .5379944 .46710206 .5379944 .5920563 .4249878 .66503909 .29100038 .66503909 .1619873 .66503909 .07199097 .58006289 .07199097 .48609925 .07199097 .43510438 .114990238 .42910768 .12599182 .42910768 .15098572 .42910768 .17999268 .44709779 .17999268 .48310853 .17999268 .50509646 .16699219 .5371094 .12298584 .5371094 .1459961 .5880585 .20698548 .6260376 .27598573 .6260376 .3809967 .6260376 .43699647 .5480957 .43699647 .46710206 .43699647 .39608766 .3899994 .32305909 .31999208 .25904847L.08299255 .041992189C.07299805 .03199768 .07199097 .0309906 .07199097 0H.5069885L.5379944 .18702698Z"/>
<path id="font_4_5" d="M.16999817 .5549774C.20298767 .54599 .23799134 .5419922 .27198792 .5419922 .2939911 .5419922 .34999085 .5419922 .41299439 .5769806 .42999269 .58699038 .49198915 .6279907 .49198915 .6490326 .49198915 .6620331 .48199464 .66503909 .47799684 .66503909 .47499085 .66503909 .47399903 .66503909 .46299745 .661026 .4269867 .6470337 .37599183 .63298037 .31098939 .63298037 .2619934 .63298037 .20799256 .64201357 .16299439 .6590271 .15299988 .6630249 .14898682 .66503909 .14498902 .66503909 .1309967 .66503909 .1309967 .6540375 .1309967 .6380005V.33787538C.1309967 .32086183 .1309967 .30885316 .14898682 .30885316 .1579895 .30885316 .16099549 .31285096 .16799927 .32086183 .19299317 .35289 .23699951 .38693238 .31498719 .38693238 .43798829 .38693238 .43798829 .23677063 .43798829 .20472718 .43798829 .16567993 .43499757 .10961914 .4019928 .068573 .37098695 .030532837 .32499696 .014511108 .28199769 .014511108 .21299744 .014511108 .14399719 .05255127 .11999512 .11061096 .16899109 .11161804 .1749878 .15066529 .1749878 .16267395 .1749878 .18971253 .1539917 .21372986 .12298584 .21372986 .11399841 .21372986 .07199097 .20872498 .07199097 .15867615 .07199097 .0665741 .15899658-.021484375 .2849884-.021484375 .42199708-.021484375 .5379944 .07557678 .5379944 .20072937 .5379944 .31484986 .44599916 .4189453 .31698609 .4189453 .2519989 .4189453 .20199585 .39793397 .16999817 .37091065V.5549774Z"/>
<path id="font_5_1" d="M.272995 .36865235H.3869934C.37199403 .30575563 .34599305 .20193482 .34599305 .11906433 .34599305 .112075809 .34599305 .075149539 .35499574 .03919983 .36499024 .0012512207 .37399293-.0107421879 .3939972-.0107421879 .4149933-.0107421879 .43699647 .007247925 .43699647 .030212403 .43699647 .037200929 .43598939 .04020691 .42999269 .05317688 .39898683 .123062137 .39898683 .19694519 .39898683 .21990967 .39898683 .24485779 .39898683 .28878785 .41600038 .36865235H.5329895C.54599 .36865235 .58299258 .36865235 .58299258 .4046631 .58299258 .43066407 .5609894 .43066407 .5419922 .43066407H.19599915C.17199707 .43066407 .13699341 .43066407 .08999634 .38365174 .06298828 .3566742 .026992798 .30177308 .026992798 .29377748 .026992798 .2828064 .037994386 .2828064 .040985109 .2828064 .04899597 .2828064 .050994874 .28479005 .056991579 .29478456 .10598755 .36865235 .16699219 .36865235 .18699646 .36865235H.24398804C.20098877 .21791077 .13198853 .07614136 .125 .061172487 .117996219 .047195436 .10798645 .026229859 .10798645 .018234253 .10798645 .0052490236 .116989139-.0107421879 .13899231-.0107421879 .1749878-.0107421879 .18399048 .025222779 .20498657 .10609436L.272995 .36865235Z"/>
<path id="font_5_2" d="M.13699341 .22949219C.19799805 .22949219 .2630005 .22949219 .31599427 .24247742 .4099884 .2654724 .4269867 .32144166 .4269867 .35542298 .4269867 .41238404 .37399293 .4423828 .31498719 .4423828 .19898987 .4423828 .04699707 .3444214 .04699707 .17242432 .04699707 .077316287 .102996829-.0107421879 .21099854-.0107421879 .36099244-.0107421879 .44499208 .09333801 .44499208 .10635376 .44499208 .112350467 .43798829 .12036133 .43099977 .12036133 .42599488 .12036133 .4249878 .11936951 .41600038 .10835266 .35598756 .03427124 .2649994 .014251709 .21299744 .014251709 .14199829 .014251709 .12298584 .081329349 .12298584 .13137818 .12298584 .13337708 .12298584 .16841126 .13699341 .22949219M.14399719 .25448609C.18798828 .41238404 .29899598 .41737367 .31498719 .41737367 .34899903 .41737367 .3899994 .40138246 .3899994 .35542298 .3899994 .25448609 .23899842 .25448609 .14399719 .25448609Z"/>
<path id="font_3_2" d="M.3999939-.85002139 .21798706-.46102906C.21099854-.44602967 .20698548-.44502259 .20199585-.44502259 .19699097-.44502259 .19499207-.44702149 .18699646-.45303346L.08699036-.5260315C.07798767-.5320282 .07398987-.536026 .07398987-.5430298 .07398987-.5470276 .07699585-.5550232 .085998538-.5550232 .09199524-.5550232 .09799194-.55003359 .11999512-.53302 .1289978-.5270233 .14199829-.5170288 .15299988-.5090332L.35499574-.9410095C.36299134-.9580078 .36799623-.9580078 .3769989-.9580078 .3919983-.9580078 .3959961-.95401 .4039917-.9380188L.8699951 .0009613037C.8730011 .006958008 .8769989 .014953613 .8769989 .020965577 .8769989 .033966066 .86698916 .04296875 .85598757 .04296875 .8470001 .04296875 .83999636 .03895569 .83099368 .020965577L.3999939-.85002139Z"/>
<path id="font_2_4" d="M.30499269 .35195924C.397995 .38697816 .44198609 .46006776 .44198609 .5290985 .44198609 .60606387 .35699464 .6660156 .25299073 .6660156 .14898682 .6660156 .070999149 .60705569 .070999149 .5310974 .070999149 .49809266 .09298706 .47909547 .12199402 .47909547 .15098572 .47909547 .17199707 .50009158 .17199707 .5290985 .17199707 .5640869 .147995 .57910159 .11399841 .57910159 .13999939 .6210327 .20098877 .64100649 .25 .64100649 .33299256 .64100649 .34899903 .5750885 .34899903 .52809146 .34899903 .49809266 .34298707 .45005799 .31799317 .41201783 .2869873 .36695863 .2519989 .36495973 .22299195 .36296083 .19799805 .36094667 .19599915 .36094667 .18798828 .36094667 .1789856 .35995484 .17098999 .35894776 .17098999 .34794618 .17098999 .33496095 .1789856 .33496095 .19599915 .33496095H.24299622C.32998658 .33496095 .36799623 .2646637 .36799623 .16937256 .36799623 .04145813 .2999878 .0055389406 .24899292 .0055389406 .22999573 .0055389406 .1329956 .010528564 .08799744 .0843811 .12399292 .07939148 .1519928 .10437012 .1519928 .13838196 .1519928 .17137146 .1269989 .19238281 .09799194 .19238281 .07299805 .19238281 .042999269 .17736817 .042999269 .13537598 .042999269 .046447755 .13598633-.022460938 .2519989-.022460938 .3769989-.022460938 .46998597 .06741333 .46998597 .16937256 .46998597 .25663758 .40098573 .33093263 .30499269 .35195924Z"/>
<path id="font_6_1" d="M.33999635 .35964967H.46299745C.44198609 .2718048 .42900086 .20690918 .42900086 .14201355 .42900086 .09109497 .44299317-.009765625 .48999024-.009765625 .5159912-.009765625 .5389862 .014221191 .5389862 .03617859 .5389862 .045166017 .5339966 .05316162 .5319977 .058151246 .49499513 .1240387 .4889984 .1879425 .4889984 .23886109 .4889984 .25482179 .4889984 .29875184 .5019989 .35964967H.6339874C.6459961 .35964967 .68899539 .35964967 .68899539 .40065003 .68899539 .43066407 .6609955 .43066407 .6439972 .43066407H.24598694C.22599793 .43066407 .18099976 .43066407 .1269989 .380661 .09599304 .3516693 .05999756 .30374146 .05999756 .2937622 .05999756 .27978517 .07398987 .27978517 .07798767 .27978517 .08898926 .27978517 .09098816 .28178407 .09799194 .29077149 .114990238 .31472779 .1539917 .35964967 .23599243 .35964967H.30099488C.2669983 .2358551 .19898987 .10107422 .18598938 .07511902 .1769867 .059143068 .1639862 .034194948 .1639862 .02420044 .1639862 .0032196046 .17999268-.009765625 .19999695-.009765625 .23498535-.009765625 .24699402 .02520752 .2579956 .057144166 .27799989 .12004089 .27799989 .122039798 .2919922 .1759491L.33999635 .35964967Z"/>
</defs>
<path transform="matrix(1.00003,0,0,-1.00005,147.23085,178.97313)" d="M141.73404 56.69362C141.73404 123.23038 78.27855 177.16754 0 177.16754-78.27855 177.16754-141.73404 123.23038-141.73404 56.69362-141.73404-9.84314-78.27855-63.7803 0-63.7803 78.27855-63.7803 141.73404-9.84314 141.73404 56.69362ZM-141.73404 56.69362" fill="#e6e6ff"/>
<path transform="matrix(1.00003,0,0,-1.00005,147.23085,178.97313)" stroke-width=".3985" stroke-linecap="butt" stroke-miterlimit="10" stroke-linejoin="miter" fill="none" stroke="#0000ff" d="M141.73404 56.69362C141.73404 123.23038 78.27855 177.16754 0 177.16754-78.27855 177.16754-141.73404 123.23038-141.73404 56.69362-141.73404-9.84314-78.27855-63.7803 0-63.7803 78.27855-63.7803 141.73404-9.84314 141.73404 56.69362ZM-141.73404 56.69362"/>
<path transform="matrix(1.00003,0,0,-1.00005,147.23085,178.97313)" d="M-145.33171 53.262H-138.13639V60.12524H-145.33171Z" fill="#e6e6ff"/>
<use data-text="R" xlink:href="#font_1_3" transform="matrix(9.962899,0,0,-9.963098,1.8944855,125.708469)" fill="#0000ff"/>
<path transform="matrix(1.00003,0,0,-1.00005,147.23085,178.97313)" d="M113.38724 35.43349C113.38724 86.31454 62.62283 127.56061 0 127.56061-62.62283 127.56061-113.38724 86.31454-113.38724 35.43349-113.38724-15.44754-62.62283-56.69362 0-56.69362 62.62283-56.69362 113.38724-15.44754 113.38724 35.43349ZM-113.38724 35.43349" fill="#fde9f1"/>
<path transform="matrix(1.00003,0,0,-1.00005,147.23085,178.97313)" stroke-width=".3985" stroke-linecap="butt" stroke-miterlimit="10" stroke-linejoin="miter" fill="none" stroke="#ec008c" d="M113.38724 35.43349C113.38724 86.31454 62.62283 127.56061 0 127.56061-62.62283 127.56061-113.38724 86.31454-113.38724 35.43349-113.38724-15.44754-62.62283-56.69362 0-56.69362 62.62283-56.69362 113.38724-15.44754 113.38724 35.43349ZM-113.38724 35.43349"/>
<path transform="matrix(1.00003,0,0,-1.00005,147.23085,178.97313)" d="M-117.26166 31.17165H-109.51282V39.695329H-117.26166Z" fill="#fde9f1"/>
<use data-text="Q" xlink:href="#font_1_2" transform="matrix(9.962899,0,0,-9.963098,29.965332,146.1395)" fill="#ec008c"/>
<path transform="matrix(1.00003,0,0,-1.00005,147.23085,178.97313)" d="M85.04042 14.17339C85.04042 49.39873 46.96713 77.9537 0 77.9537-46.96713 77.9537-85.04042 49.39873-85.04042 14.17339-85.04042-21.05194-46.96713-49.6069 0-49.6069 46.96713-49.6069 85.04042-21.05194 85.04042 14.17339ZM-85.04042 14.17339" fill="#ffe6e6"/>
<path transform="matrix(1.00003,0,0,-1.00005,147.23085,178.97313)" stroke-width=".3985" stroke-linecap="butt" stroke-miterlimit="10" stroke-linejoin="miter" fill="none" stroke="#ff0000" d="M85.04042 14.17339C85.04042 49.39873 46.96713 77.9537 0 77.9537-46.96713 77.9537-85.04042 49.39873-85.04042 14.17339-85.04042-21.05194-46.96713-49.6069 0-49.6069 46.96713-49.6069 85.04042-21.05194 85.04042 14.17339ZM-85.04042 14.17339"/>
<path transform="matrix(1.00003,0,0,-1.00005,147.23085,178.97313)" d="M-88.36136 10.74178H-81.7195V17.60502H-88.36136Z" fill="#ffe6e6"/>
<use data-text="Z" xlink:href="#font_1_4" transform="matrix(9.962899,0,0,-9.963098,58.867189,168.23059)" fill="#ff0000"/>
<path transform="matrix(1.00003,0,0,-1.00005,147.23085,178.97313)" d="M56.69362 0C56.69362 23.48355 31.31142 42.5202 0 42.5202-31.31142 42.5202-56.69362 23.48355-56.69362 0-56.69362-23.48355-31.31142-42.5202 0-42.5202 31.31142-42.5202 56.69362-23.48355 56.69362 0ZM-56.69362 0" fill="#fff2e6"/>
<path transform="matrix(1.00003,0,0,-1.00005,147.23085,178.97313)" stroke-width=".3985" stroke-linecap="butt" stroke-miterlimit="10" stroke-linejoin="miter" fill="none" stroke="#ff8000" d="M56.69362 0C56.69362 23.48355 31.31142 42.5202 0 42.5202-31.31142 42.5202-56.69362 23.48355-56.69362 0-56.69362-23.48355-31.31142-42.5202 0-42.5202 31.31142-42.5202 56.69362-23.48355 56.69362 0ZM-56.69362 0"/>
<path transform="matrix(1.00003,0,0,-1.00005,147.23085,178.97313)" d="M-60.29128-3.43161H-53.095949V3.4316297H-60.29128Z" fill="#fff2e6"/>
<use data-text="N" xlink:href="#font_1_1" transform="matrix(9.962899,0,0,-9.963098,86.938037,182.4053)" fill="#ff8000"/>
<path transform="matrix(1.00003,0,0,-1.00005,147.23085,178.97313)" stroke-width=".3985" stroke-linecap="butt" stroke-miterlimit="10" stroke-linejoin="miter" fill="none" stroke="#000000" d="M79.37114 130.39548"/>
<use data-text="0" xlink:href="#font_2_1" transform="matrix(8.966669,0,0,-8.966848,122.2491,179.02713)"/>
<use data-text="1" xlink:href="#font_2_2" transform="matrix(8.966669,0,0,-8.966848,159.1012,162.01929)"/>
<use data-text="2" xlink:href="#font_2_3" transform="matrix(8.966669,0,0,-8.966848,164.77039,201.70627)"/>
<use data-text="&#x2212;" xlink:href="#font_3_1" transform="matrix(8.966669,0,0,-8.966848,118.66499,124.75042)"/>
<use data-text="1" xlink:href="#font_2_2" transform="matrix(8.966669,0,0,-8.966848,125.833209,124.75042)"/>
<use data-text="&#x2212;" xlink:href="#font_3_1" transform="matrix(8.966669,0,0,-8.966848,166.85544,133.25585)"/>
<use data-text="2" xlink:href="#font_2_3" transform="matrix(8.966669,0,0,-8.966848,174.02365,133.25585)"/>
<use data-text="3" xlink:href="#font_4_3" transform="matrix(5.97778,0,0,-5.9778988,94.37927,86.82653)"/>
<path transform="matrix(1.00003,0,0,-1.00005,-135.04962,-72.48342)" stroke-width=".3786" stroke-linecap="butt" stroke-miterlimit="10" stroke-linejoin="miter" fill="none" stroke="#000000" d="M229.422-160.734H233.075"/>
<use data-text="4" xlink:href="#font_4_4" transform="matrix(5.97778,0,0,-5.9778988,94.37927,93.54287)"/>
<use data-text="&#x2212;" xlink:href="#font_3_1" transform="matrix(8.966669,0,0,-8.966848,174.64168,87.665569)"/>
<use data-text="1" xlink:href="#font_4_1" transform="matrix(5.97778,0,0,-5.9778988,183.00594,83.99139)"/>
<path transform="matrix(1.00003,0,0,-1.00005,-53.591176,-75.318569)" stroke-width=".3786" stroke-linecap="butt" stroke-miterlimit="10" stroke-linejoin="miter" fill="none" stroke="#000000" d="M236.59-160.734H240.242"/>
<use data-text="2" xlink:href="#font_4_2" transform="matrix(5.97778,0,0,-5.9778988,183.00594,90.707729)"/>
<use data-text="5" xlink:href="#font_4_5" transform="matrix(5.97778,0,0,-5.9778988,139.73563,78.322109)"/>
<path transform="matrix(1.00003,0,0,-1.00005,-89.69326,-80.98785)" stroke-width=".3786" stroke-linecap="butt" stroke-miterlimit="10" stroke-linejoin="miter" fill="none" stroke="#000000" d="M229.422-160.734H233.075"/>
<use data-text="3" xlink:href="#font_4_3" transform="matrix(5.97778,0,0,-5.9778988,139.73563,85.038448)"/>
<use data-text="&#x03c0;" xlink:href="#font_5_1" transform="matrix(8.966669,0,0,-8.966848,104.74657,41.9973)"/>
<use data-text="e" xlink:href="#font_5_2" transform="matrix(8.966669,0,0,-8.966848,153.59305,36.326997)"/>
<use data-text="&#x221a;" xlink:href="#font_3_2" transform="matrix(8.966669,0,0,-8.966848,183.60895,36.151)"/>
<path transform="matrix(1.00003,0,0,-1.00005,-44.62391,-119.412769)" stroke-width=".3786" stroke-linecap="butt" stroke-miterlimit="10" stroke-linejoin="miter" fill="none" stroke="#000000" d="M235.906-155.367H240.514"/>
<use data-text="2" xlink:href="#font_2_3" transform="matrix(8.966669,0,0,-8.966848,191.28919,43.571367)"/>
<use data-text="&#x2212;" xlink:href="#font_3_1" transform="matrix(8.966669,0,0,-8.966848,58.12918,52.07579)"/>
<use data-text="&#x221a;" xlink:href="#font_3_2" transform="matrix(8.966669,0,0,-8.966848,65.29739,44.655427)"/>
<path transform="matrix(1.00003,0,0,-1.00005,-170.10367,-110.90834)" stroke-width=".3786" stroke-linecap="butt" stroke-miterlimit="10" stroke-linejoin="miter" fill="none" stroke="#000000" d="M243.073-155.367H247.681"/>
<use data-text="3" xlink:href="#font_2_4" transform="matrix(8.966669,0,0,-8.966848,72.97664,52.07579)"/>
<use data-text="&#x03c0;" xlink:href="#font_6_1" transform="matrix(5.97778,0,0,-5.9778988,224.32518,46.49951)"/>
<path transform="matrix(1.00003,0,0,-1.00005,-5.103714,-112.81044)" stroke-width=".3786" stroke-linecap="butt" stroke-miterlimit="10" stroke-linejoin="miter" fill="none" stroke="#000000" d="M229.422-160.734H233.981"/>
<use data-text="2" xlink:href="#font_4_2" transform="matrix(5.97778,0,0,-5.9778988,224.7782,53.21585)"/>
</svg>
