<svg xmlns="http://www.w3.org/2000/svg" xmlns:xlink="http://www.w3.org/1999/xlink" xmlns:inkscape="http://www.inkscape.org/namespaces/inkscape" version="1.1" width="167" height="40" viewBox="0 0 167 40">
<defs>
<path id="font_1_1" d="M.6749878 .22944641C.69299319 .22944641 .71199038 .22944641 .71199038 .25144959 .71199038 .27246095 .69200137 .27246095 .6749878 .27246095H.12298584C.10598755 .27246095 .085998538 .27246095 .085998538 .25144959 .085998538 .22944641 .10499573 .22944641 .12298584 .22944641H.6749878Z"/>
<path id="font_2_3" d="M.46199037 .17704773H.43399049C.43199159 .16404724 .42399598 .10501099 .41099549 .08900452 .40499879 .07998657 .33599855 .07998657 .31599427 .07998657H.13798523L.23699951 .17404175C.40098573 .3161316 .46199037 .36915589 .46199037 .4711914 .46199037 .5860901 .36698915 .6660156 .24398804 .6660156 .1289978 .6660156 .050994874 .575119 .050994874 .4841919 .050994874 .43418885 .09399414 .42919923 .102996829 .42919923 .125 .42919923 .15499878 .44519044 .15499878 .48120118 .15499878 .51119998 .13398743 .5332031 .102996829 .5332031 .09799194 .5332031 .09498596 .5332031 .09098816 .53219607 .114990238 .6030731 .1789856 .63500979 .23298645 .63500979 .33499146 .63500979 .36999513 .5401764 .36999513 .4711914 .36999513 .36915589 .29299928 .28611756 .24499512 .23408509L.06199646 .035995485C.050994874 .024993897 .050994874 .022994996 .050994874 0H.43399049L.46199037 .17704773Z"/>
<path id="font_1_2" d="M.3999939-.85002139 .21798706-.46102906C.21099854-.44602967 .20698548-.44502259 .20199585-.44502259 .19699097-.44502259 .19499207-.44702149 .18699646-.45303346L.08699036-.5260315C.07798767-.5320282 .07398987-.536026 .07398987-.5430298 .07398987-.5470276 .07699585-.5550232 .085998538-.5550232 .09199524-.5550232 .09799194-.55003359 .11999512-.53302 .1289978-.5270233 .14199829-.5170288 .15299988-.5090332L.35499574-.9410095C.36299134-.9580078 .36799623-.9580078 .3769989-.9580078 .3919983-.9580078 .3959961-.95401 .4039917-.9380188L.8699951 .0009613037C.8730011 .006958008 .8769989 .014953613 .8769989 .020965577 .8769989 .033966066 .86698916 .04296875 .85598757 .04296875 .8470001 .04296875 .83999636 .03895569 .83099368 .020965577L.3999939-.85002139Z"/>
<path id="font_2_4" d="M.30499269 .35195924C.397995 .38697816 .44198609 .46006776 .44198609 .5290985 .44198609 .60606387 .35699464 .6660156 .25299073 .6660156 .14898682 .6660156 .070999149 .60705569 .070999149 .5310974 .070999149 .49809266 .09298706 .47909547 .12199402 .47909547 .15098572 .47909547 .17199707 .50009158 .17199707 .5290985 .17199707 .5640869 .147995 .57910159 .11399841 .57910159 .13999939 .6210327 .20098877 .64100649 .25 .64100649 .33299256 .64100649 .34899903 .5750885 .34899903 .52809146 .34899903 .49809266 .34298707 .45005799 .31799317 .41201783 .2869873 .36695863 .2519989 .36495973 .22299195 .36296083 .19799805 .36094667 .19599915 .36094667 .18798828 .36094667 .1789856 .35995484 .17098999 .35894776 .17098999 .34794618 .17098999 .33496095 .1789856 .33496095 .19599915 .33496095H.24299622C.32998658 .33496095 .36799623 .2646637 .36799623 .16937256 .36799623 .04145813 .2999878 .0055389406 .24899292 .0055389406 .22999573 .0055389406 .1329956 .010528564 .08799744 .0843811 .12399292 .07939148 .1519928 .10437012 .1519928 .13838196 .1519928 .17137146 .1269989 .19238281 .09799194 .19238281 .07299805 .19238281 .042999269 .17736817 .042999269 .13537598 .042999269 .046447755 .13598633-.022460938 .2519989-.022460938 .3769989-.022460938 .46998597 .06741333 .46998597 .16937256 .46998597 .25663758 .40098573 .33093263 .30499269 .35195924Z"/>
<path id="font_2_2" d="M.3039856 .6392822C.3039856 .6642761 .30299378 .666275 .27799989 .666275 .21598816 .60227969 .12399292 .60227969 .09298706 .60227969V.57128909C.11199951 .57128909 .17298889 .57128909 .22698975 .5972748V.08001709C.22698975 .042999269 .22399903 .0309906 .1309967 .0309906H.09899902V0C.1349945 .0029907227 .22399903 .0029907227 .2649994 .0029907227 .30599977 .0029907227 .3959961 .0029907227 .43199159 0V.0309906H.3999939C.30699159 .0309906 .3039856 .042999269 .3039856 .08001709V.6392822Z"/>
<path id="font_2_1" d="M.47299195 .31976319C.47299195 .38682557 .46998597 .47288514 .43499757 .5479431 .3909912 .64201357 .31498719 .6660156 .25698854 .6660156 .19699097 .6660156 .12098694 .64201357 .07699585 .5459442 .04499817 .47688294 .039993287 .39582826 .039993287 .31976319 .039993287 .25471498 .041992189 .15765381 .084991458 .07858276 .13198853-.0064697267 .20999146-.022460938 .2559967-.022460938 .32099916-.022460938 .394989 .0055389406 .43699647 .097595218 .46699525 .1646576 .47299195 .23971558 .47299195 .31976319M.25698854 .002532959C.22698975 .002532959 .15499878 .016540528 .13598633 .12962342 .12599182 .18867493 .12599182 .2747345 .12599182 .33177186 .12599182 .39982606 .12599182 .47888185 .13798523 .53393557 .1579895 .6230011 .22200012 .64100649 .2559967 .64100649 .2939911 .64100649 .35699464 .62098696 .37599183 .5279236 .3869934 .47288514 .3869934 .39482118 .3869934 .33177186 .3869934 .2697296 .3869934 .18566895 .3769989 .12661743 .35598756 .012542725 .28199769 .002532959 .25698854 .002532959Z"/>
<path id="font_3_1" d="M.272995 .36865235H.3869934C.37199403 .30575563 .34599305 .20193482 .34599305 .11906433 .34599305 .112075809 .34599305 .075149539 .35499574 .03919983 .36499024 .0012512207 .37399293-.0107421879 .3939972-.0107421879 .4149933-.0107421879 .43699647 .007247925 .43699647 .030212403 .43699647 .037200929 .43598939 .04020691 .42999269 .05317688 .39898683 .123062137 .39898683 .19694519 .39898683 .21990967 .39898683 .24485779 .39898683 .28878785 .41600038 .36865235H.5329895C.54599 .36865235 .58299258 .36865235 .58299258 .4046631 .58299258 .43066407 .5609894 .43066407 .5419922 .43066407H.19599915C.17199707 .43066407 .13699341 .43066407 .08999634 .38365174 .06298828 .3566742 .026992798 .30177308 .026992798 .29377748 .026992798 .2828064 .037994386 .2828064 .040985109 .2828064 .04899597 .2828064 .050994874 .28479005 .056991579 .29478456 .10598755 .36865235 .16699219 .36865235 .18699646 .36865235H.24398804C.20098877 .21791077 .13198853 .07614136 .125 .061172487 .117996219 .047195436 .10798645 .026229859 .10798645 .018234253 .10798645 .0052490236 .116989139-.0107421879 .13899231-.0107421879 .1749878-.0107421879 .18399048 .025222779 .20498657 .10609436L.272995 .36865235Z"/>
<path id="font_2_5" d="M.0289917 .19602967V.16503906H.3019867V.07901001C.3019867 .041992189 .29899598 .0309906 .22399903 .0309906H.20199585V0C.2649994 .0029907227 .33499146 .0029907227 .34199525 .0029907227 .34700013 .0029907227 .4189911 .0029907227 .48199464 0V.0309906H.45999146C.3849945 .0309906 .38198854 .041992189 .38198854 .07901001V.16503906H.48399354V.19602967H.38198854V.64974978C.38198854 .669754 .38198854 .6767578 .36299134 .6767578 .35099793 .6767578 .34999085 .67575076 .34098817 .66174319L.0289917 .19602967M.06098938 .19602967 .30799867 .56581118V.19602967H.06098938Z"/>
<path id="font_2_6" d="M.10398865 .3444519C.10398865 .32641603 .10398865 .31539918 .117996219 .31539918 .12599182 .31539918 .1289978 .31941224 .1349945 .32843019 .16499329 .3704834 .21299744 .39453126 .2649994 .39453126 .37199403 .39453126 .37199403 .24029541 .37199403 .20425415 .37199403 .17324829 .37199403 .11125183 .34399415 .06637573 .31698609 .024475098 .2749939 .0055389406 .23599243 .0055389406 .1769867 .0055389406 .10998535 .042434694 .085998538 .116256717 .08699036 .116256717 .09298706 .11425781 .099990848 .11425781 .11999512 .11425781 .14898682 .12724304 .14898682 .16325379 .14898682 .19424439 .1269989 .21224976 .099990848 .21224976 .07899475 .21224976 .050994874 .20025635 .050994874 .1602478 .050994874 .069366458 .1269989-.022460938 .23799134-.022460938 .35899354-.022460938 .46199037 .0753479 .46199037 .19924927 .46199037 .3204193 .37599183 .41952516 .2669983 .41952516 .21899414 .41952516 .16999817 .40351869 .1349945 .36747743V.56477358C.16499329 .5557709 .19599915 .55078127 .22698975 .55078127 .34999085 .55078127 .42199708 .6397705 .42199708 .652771 .42199708 .6617737 .41600038 .6657715 .41099549 .6657715 .40899659 .6657715 .40699769 .6657715 .397995 .6607666 .35099793 .6417694 .30499269 .6337738 .2630005 .6337738 .21998596 .6337738 .1749878 .6417694 .1289978 .6607666 .11898804 .6657715 .116989139 .6657715 .115997318 .6657715 .10398865 .6657715 .10398865 .655777 .10398865 .6387787V.3444519Z"/>
<path id="font_3_2" d="M.13699341 .22949219C.19799805 .22949219 .2630005 .22949219 .31599427 .24247742 .4099884 .2654724 .4269867 .32144166 .4269867 .35542298 .4269867 .41238404 .37399293 .4423828 .31498719 .4423828 .19898987 .4423828 .04699707 .3444214 .04699707 .17242432 .04699707 .077316287 .102996829-.0107421879 .21099854-.0107421879 .36099244-.0107421879 .44499208 .09333801 .44499208 .10635376 .44499208 .112350467 .43798829 .12036133 .43099977 .12036133 .42599488 .12036133 .4249878 .11936951 .41600038 .10835266 .35598756 .03427124 .2649994 .014251709 .21299744 .014251709 .14199829 .014251709 .12298584 .081329349 .12298584 .13137818 .12298584 .13337708 .12298584 .16841126 .13699341 .22949219M.14399719 .25448609C.18798828 .41238404 .29899598 .41737367 .31498719 .41737367 .34899903 .41737367 .3899994 .40138246 .3899994 .35542298 .3899994 .25448609 .23899842 .25448609 .14399719 .25448609Z"/>
</defs>
<path transform="matrix(1.00002,0,0,-1.00005,66.89198,13.884094)" stroke-width="1.59404" stroke-linecap="butt" stroke-miterlimit="10" stroke-linejoin="miter" fill="none" stroke="#000000" d="M-65.19774 0H92.39934"/>
<path transform="matrix(1.00002,0,0,-1.00005,159.29319,13.884094)" d="M6.81448 0C4.79533 .37857 1.51433 1.51433-.75716 2.83936V-2.83936C1.51433-1.51433 4.79533-.37857 6.81448 0"/>
<path transform="matrix(1.00002,0,0,-1.00005,66.89198,13.884094)" stroke-width=".3985" stroke-linecap="butt" stroke-miterlimit="10" stroke-linejoin="miter" fill="none" stroke="#000000" d="M-56.69362-2.83484V2.83441M-49.09651 2.83484V-2.83441M-28.3468-2.83484V2.83441M-14.17339 2.83484V-2.83441M0-2.83484V2.83441M9.02274 2.83484V-2.83441M21.2601 2.83484V-2.83441M28.3468-2.83484V2.83441M40.08241 2.83484V-2.83441M47.24438 2.83484V-2.83441M56.69362-2.83484V2.83441M77.05533 2.83484V-2.83441M85.04042-2.83484V2.83441M89.05437 2.83484V-2.83441"/>
<use data-text="&#x2212;" xlink:href="#font_1_1" transform="matrix(8.966579,0,0,-8.966848,4.309723,6.6997358)"/>
<use data-text="2" xlink:href="#font_2_3" transform="matrix(8.966579,0,0,-8.966848,11.476883,6.6997358)"/>
<use data-text="&#x2212;" xlink:href="#font_1_1" transform="matrix(8.966579,0,0,-8.966848,8.066803,28.415822)"/>
<use data-text="&#x221a;" xlink:href="#font_1_2" transform="matrix(8.966579,0,0,-8.966848,15.233963,20.99645)"/>
<path transform="matrix(1.00002,0,0,-1.00005,-140.82718,26.530728)" stroke-width=".3786" stroke-linecap="butt" stroke-miterlimit="10" stroke-linejoin="miter" fill="none" stroke="#000000" d="M163.738 5.724H168.345"/>
<use data-text="3" xlink:href="#font_2_4" transform="matrix(8.966579,0,0,-8.966848,22.914109,28.415822)"/>
<use data-text="&#x2212;" xlink:href="#font_1_1" transform="matrix(8.966579,0,0,-8.966848,32.657297,6.6997358)"/>
<use data-text="1" xlink:href="#font_2_2" transform="matrix(8.966579,0,0,-8.966848,39.824457,6.6997358)"/>
<use data-text="&#x2212;" xlink:href="#font_1_1" transform="matrix(8.966579,0,0,-8.966848,45.63456,31.81699)"/>
<use data-text="1" xlink:href="#font_2_2" transform="matrix(8.966579,0,0,-8.966848,53.997735,26.0177)"/>
<path transform="matrix(1.00002,0,0,-1.00005,-103.25942,29.931897)" stroke-width=".3786" stroke-linecap="butt" stroke-miterlimit="10" stroke-linejoin="miter" fill="none" stroke="#000000" d="M157.254 .356H161.861"/>
<use data-text="2" xlink:href="#font_2_3" transform="matrix(8.966579,0,0,-8.966848,53.99772,37.898294)"/>
<use data-text="0" xlink:href="#font_2_1" transform="matrix(8.966579,0,0,-8.966848,64.58794,7.529777)"/>
<use data-text="1" xlink:href="#font_2_2" transform="matrix(8.966579,0,0,-8.966848,73.61012,26.0177)"/>
<path transform="matrix(1.00002,0,0,-1.00005,-76.9729,29.931897)" stroke-width=".3786" stroke-linecap="butt" stroke-miterlimit="10" stroke-linejoin="miter" fill="none" stroke="#000000" d="M150.086 .356H155.682"/>
<use data-text="&#x03c0;" xlink:href="#font_3_1" transform="matrix(8.966579,0,0,-8.966848,73.116107,37.898294)"/>
<use data-text="3" xlink:href="#font_2_4" transform="matrix(8.966579,0,0,-8.966848,85.84836,26.0177)"/>
<path transform="matrix(1.00002,0,0,-1.00005,-64.24065,29.931897)" stroke-width=".3786" stroke-linecap="butt" stroke-miterlimit="10" stroke-linejoin="miter" fill="none" stroke="#000000" d="M150.086 .356H154.694"/>
<use data-text="4" xlink:href="#font_2_5" transform="matrix(8.966579,0,0,-8.966848,85.84836,37.898294)"/>
<use data-text="1" xlink:href="#font_2_2" transform="matrix(8.966579,0,0,-8.966848,92.9355,7.529777)"/>
<use data-text="&#x221a;" xlink:href="#font_1_2" transform="matrix(8.966579,0,0,-8.966848,100.831668,20.99645)"/>
<path transform="matrix(1.00002,0,0,-1.00005,-48.06232,26.530728)" stroke-width=".3786" stroke-linecap="butt" stroke-miterlimit="10" stroke-linejoin="miter" fill="none" stroke="#000000" d="M156.57 5.724H161.178"/>
<use data-text="2" xlink:href="#font_2_3" transform="matrix(8.966579,0,0,-8.966848,108.51082,28.415822)"/>
<use data-text="5" xlink:href="#font_2_6" transform="matrix(8.966579,0,0,-8.966848,111.832889,26.0177)"/>
<path transform="matrix(1.00002,0,0,-1.00005,-38.256124,29.931897)" stroke-width=".3786" stroke-linecap="butt" stroke-miterlimit="10" stroke-linejoin="miter" fill="none" stroke="#000000" d="M150.086 .356H154.694"/>
<use data-text="3" xlink:href="#font_2_4" transform="matrix(8.966579,0,0,-8.966848,111.832889,37.898294)"/>
<use data-text="2" xlink:href="#font_2_3" transform="matrix(8.966579,0,0,-8.966848,121.28307,7.529777)"/>
<use data-text="e" xlink:href="#font_3_2" transform="matrix(8.966579,0,0,-8.966848,141.80649,24.099606)"/>
<use data-text="3" xlink:href="#font_2_4" transform="matrix(8.966579,0,0,-8.966848,149.63065,7.529777)"/>
<use data-text="&#x03c0;" xlink:href="#font_3_1" transform="matrix(8.966579,0,0,-8.966848,153.1497,24.099606)"/>
</svg>
