<svg xmlns="http://www.w3.org/2000/svg" xmlns:xlink="http://www.w3.org/1999/xlink" xmlns:inkscape="http://www.inkscape.org/namespaces/inkscape" version="1.1" width="204" height="165" viewBox="0 0 204 165">
<defs>
<path id="font_1_1" d="M.6749878 .22944641C.69299319 .22944641 .71199038 .22944641 .71199038 .25144959 .71199038 .27246095 .69200137 .27246095 .6749878 .27246095H.12298584C.10598755 .27246095 .085998538 .27246095 .085998538 .25144959 .085998538 .22944641 .10499573 .22944641 .12298584 .22944641H.6749878Z"/>
<path id="font_2_3" d="M.30499269 .35195924C.397995 .38697816 .44198609 .46006776 .44198609 .5290985 .44198609 .60606387 .35699464 .6660156 .25299073 .6660156 .14898682 .6660156 .070999149 .60705569 .070999149 .5310974 .070999149 .49809266 .09298706 .47909547 .12199402 .47909547 .15098572 .47909547 .17199707 .50009158 .17199707 .5290985 .17199707 .5640869 .147995 .57910159 .11399841 .57910159 .13999939 .6210327 .20098877 .64100649 .25 .64100649 .33299256 .64100649 .34899903 .5750885 .34899903 .52809146 .34899903 .49809266 .34298707 .45005799 .31799317 .41201783 .2869873 .36695863 .2519989 .36495973 .22299195 .36296083 .19799805 .36094667 .19599915 .36094667 .18798828 .36094667 .1789856 .35995484 .17098999 .35894776 .17098999 .34794618 .17098999 .33496095 .1789856 .33496095 .19599915 .33496095H.24299622C.32998658 .33496095 .36799623 .2646637 .36799623 .16937256 .36799623 .04145813 .2999878 .0055389406 .24899292 .0055389406 .22999573 .0055389406 .1329956 .010528564 .08799744 .0843811 .12399292 .07939148 .1519928 .10437012 .1519928 .13838196 .1519928 .17137146 .1269989 .19238281 .09799194 .19238281 .07299805 .19238281 .042999269 .17736817 .042999269 .13537598 .042999269 .046447755 .13598633-.022460938 .2519989-.022460938 .3769989-.022460938 .46998597 .06741333 .46998597 .16937256 .46998597 .25663758 .40098573 .33093263 .30499269 .35195924Z"/>
<path id="font_2_2" d="M.46199037 .17704773H.43399049C.43199159 .16404724 .42399598 .10501099 .41099549 .08900452 .40499879 .07998657 .33599855 .07998657 .31599427 .07998657H.13798523L.23699951 .17404175C.40098573 .3161316 .46199037 .36915589 .46199037 .4711914 .46199037 .5860901 .36698915 .6660156 .24398804 .6660156 .1289978 .6660156 .050994874 .575119 .050994874 .4841919 .050994874 .43418885 .09399414 .42919923 .102996829 .42919923 .125 .42919923 .15499878 .44519044 .15499878 .48120118 .15499878 .51119998 .13398743 .5332031 .102996829 .5332031 .09799194 .5332031 .09498596 .5332031 .09098816 .53219607 .114990238 .6030731 .1789856 .63500979 .23298645 .63500979 .33499146 .63500979 .36999513 .5401764 .36999513 .4711914 .36999513 .36915589 .29299928 .28611756 .24499512 .23408509L.06199646 .035995485C.050994874 .024993897 .050994874 .022994996 .050994874 0H.43399049L.46199037 .17704773Z"/>
<path id="font_2_1" d="M.3039856 .6392822C.3039856 .6642761 .30299378 .666275 .27799989 .666275 .21598816 .60227969 .12399292 .60227969 .09298706 .60227969V.57128909C.11199951 .57128909 .17298889 .57128909 .22698975 .5972748V.08001709C.22698975 .042999269 .22399903 .0309906 .1309967 .0309906H.09899902V0C.1349945 .0029907227 .22399903 .0029907227 .2649994 .0029907227 .30599977 .0029907227 .3959961 .0029907227 .43199159 0V.0309906H.3999939C.30699159 .0309906 .3039856 .042999269 .3039856 .08001709V.6392822Z"/>
<clipPath id="clip_3">
<path transform="matrix(1.00006,0,0,-1.00006,6.10553,163.37096)" d="M0 0H194.27216V161.39575H0Z"/>
</clipPath>
</defs>
<path transform="matrix(1.00006,0,0,-1.00006,6.10553,163.37096)" stroke-width=".19925" stroke-linecap="butt" stroke-miterlimit="10" stroke-linejoin="miter" fill="none" stroke="#d9d9d9" d="M0 0V161.39575M32.3787 0V161.39575M64.75739 0V161.39575M129.51477 0V161.39575M161.89347 0V161.39575M194.27216 0V161.39575"/>
<path transform="matrix(1.00006,0,0,-1.00006,6.10553,163.37096)" stroke-width=".19925" stroke-linecap="butt" stroke-miterlimit="10" stroke-linejoin="miter" fill="none" stroke="#d9d9d9" d="M0 3.84274H194.27216M0 42.27031H194.27216M0 119.12543H194.27216M0 157.553H194.27216"/>
<path transform="matrix(1.00006,0,0,-1.00006,6.10553,163.37096)" stroke-width=".19925" stroke-linecap="butt" stroke-miterlimit="10" stroke-linejoin="miter" fill="none" stroke="#7f807f" d="M0 78.57182V82.8239M32.3787 78.57182V82.8239M64.75739 78.57182V82.8239M129.51477 78.57182V82.8239M161.89347 78.57182V82.8239M194.27216 78.57182V82.8239"/>
<path transform="matrix(1.00006,0,0,-1.00006,6.10553,163.37096)" stroke-width=".19925" stroke-linecap="butt" stroke-miterlimit="10" stroke-linejoin="miter" fill="none" stroke="#7f807f" d="M95.01018 3.84274H99.26195M95.01018 42.27031H99.26195M95.01018 119.12543H99.26195M95.01018 157.553H99.26195"/>
<path transform="matrix(1.00006,0,0,-1.00006,6.10553,163.37096)" stroke-width=".3985" stroke-linecap="butt" stroke-miterlimit="10" stroke-linejoin="miter" fill="none" stroke="#000000" d="M0 80.69788H192.27964"/>
<path transform="matrix(1.00006,0,0,-1.00006,198.3967,82.668239)" d="M1.99252 0-1.19551 1.59401 0 0-1.19551-1.59401"/>
<path transform="matrix(1.00006,0,0,-1.00006,6.10553,163.37096)" stroke-width=".3985" stroke-linecap="butt" stroke-miterlimit="10" stroke-linejoin="miter" fill="none" stroke="#000000" d="M97.13608 0V159.40323"/>
<path transform="matrix(0,-1.00006,-1.00006,-0,103.24743,3.9581757)" d="M1.99252 0-1.19551 1.59401 0 0-1.19551-1.59401"/>
<use data-text="&#x2212;" xlink:href="#font_1_1" transform="matrix(8.966938,0,0,-8.966938,.21717835,94.092807)"/>
<use data-text="3" xlink:href="#font_2_3" transform="matrix(8.966938,0,0,-8.966938,7.384613,94.092807)"/>
<use data-text="&#x2212;" xlink:href="#font_1_1" transform="matrix(8.966938,0,0,-8.966938,32.598115,94.092807)"/>
<use data-text="2" xlink:href="#font_2_2" transform="matrix(8.966938,0,0,-8.966938,39.76555,94.092807)"/>
<use data-text="&#x2212;" xlink:href="#font_1_1" transform="matrix(8.966938,0,0,-8.966938,64.97906,94.092807)"/>
<use data-text="1" xlink:href="#font_2_1" transform="matrix(8.966938,0,0,-8.966938,72.14649,94.092807)"/>
<use data-text="1" xlink:href="#font_2_1" transform="matrix(8.966938,0,0,-8.966938,133.32416,94.092807)"/>
<use data-text="2" xlink:href="#font_2_2" transform="matrix(8.966938,0,0,-8.966938,165.7051,94.092807)"/>
<use data-text="3" xlink:href="#font_2_3" transform="matrix(8.966938,0,0,-8.966938,198.08504,94.092807)"/>
<use data-text="&#x2212;" xlink:href="#font_1_1" transform="matrix(8.966938,0,0,-8.966938,85.82531,162.00188)"/>
<use data-text="2" xlink:href="#font_2_2" transform="matrix(8.966938,0,0,-8.966938,92.992748,162.00188)"/>
<use data-text="&#x2212;" xlink:href="#font_1_1" transform="matrix(8.966938,0,0,-8.966938,85.82531,123.57257)"/>
<use data-text="1" xlink:href="#font_2_1" transform="matrix(8.966938,0,0,-8.966938,92.992748,123.57257)"/>
<use data-text="1" xlink:href="#font_2_1" transform="matrix(8.966938,0,0,-8.966938,92.993747,47.127985)"/>
<use data-text="2" xlink:href="#font_2_2" transform="matrix(8.966938,0,0,-8.966938,92.993747,8.697678)"/>
<g clip-path="url(#clip_3)">
<path transform="matrix(1.00006,0,0,-1.00006,6.10553,163.37096)" stroke-width=".79701" stroke-linecap="butt" stroke-miterlimit="10" stroke-linejoin="miter" fill="none" stroke="#ff0000" d="M0 0 8.09467 6.72482 16.18935 13.44965 24.28401 20.17447 32.3787 26.89929 40.47336 33.62411 48.56804 40.34894 56.6627 47.07376 64.75739 53.79858 72.85205 60.5234 80.94673 67.24823 89.0414 73.97305 97.13608 80.69788 105.23074 87.4227 113.32542 94.14752 121.42009 100.87234 129.51477 107.59717 137.60944 114.32199 145.70412 121.04681 153.79878 127.77164 161.89347 134.49646 169.98813 141.22129 178.08281 147.9461 186.17748 154.67093 194.27216 161.39575"/>
</g>
</svg>
